<svg version="1.1" id="Layer_1" xmlns="http://www.w3.org/2000/svg" xmlns:xlink="http://www.w3.org/1999/xlink" x="0px" y="0px"
	 width="100%" viewBox="0 0 410 408" enable-background="new 0 0 410 408" xml:space="preserve">
<path fill="#F7AB87" opacity="1.000000" stroke="none" 
	d="
M0.999999,95.000000 
	C1.000000,86.312439 1.000000,77.624870 1.302133,68.388947 
	C1.402844,66.893723 1.201422,65.946861 1.000000,65.000000 
	C1.000000,56.312435 1.000000,47.624874 1.468650,38.472267 
	C9.744467,38.001980 17.553762,38.101562 25.357817,37.943027 
	C28.767801,37.873749 30.129187,39.086273 30.050745,42.569347 
	C29.882488,50.040558 29.995874,57.518116 29.583675,64.995735 
	C27.576796,65.228333 25.980181,65.458260 24.383564,65.688194 
	C24.375257,66.220680 24.366953,66.753166 24.358646,67.285660 
	C26.237001,67.524277 28.115356,67.762901 29.996216,68.470078 
	C30.001646,77.626869 30.004570,86.315109 29.760426,95.006378 
	C29.513357,95.009415 29.019182,95.008324 28.578220,95.006081 
	C19.777639,95.672112 11.418022,96.340385 2.971099,96.708351 
	C2.255862,95.938698 1.627929,95.469353 0.999999,95.000000 
z"/>
<path fill="#E69E7D" opacity="1.000000" stroke="none" 
	d="
M411.000000,95.000000 
	C411.000000,95.750000 411.000000,96.500000 410.531616,97.620300 
	C405.780518,97.989349 401.483154,98.208328 397.219269,97.924606 
	C392.994629,97.643517 391.866852,99.449471 391.907501,103.410469 
	C391.960846,108.610016 391.370453,113.816154 390.772980,119.010162 
	C390.111938,118.995506 389.734772,118.990143 389.119385,118.719070 
	C388.455383,117.357399 388.029663,116.261452 387.998077,115.014153 
	C388.928650,110.950249 389.797974,107.042984 389.860229,103.122910 
	C389.891083,101.180717 388.762085,97.810349 387.589844,97.538910 
	C384.751434,96.881630 381.032471,95.295181 378.601624,99.074997 
	C377.689728,97.649406 377.047577,96.438148 376.909729,95.176804 
	C380.079681,95.086823 382.755249,94.884514 385.408447,95.047157 
	C388.908966,95.261742 390.142944,93.766586 390.045654,90.346115 
	C389.875153,84.351364 389.874695,78.344833 390.042358,72.349930 
	C390.148743,68.545090 388.738312,66.824501 384.804565,66.970665 
	C379.978271,67.150002 375.140015,66.987938 370.307159,67.015038 
	C362.528320,67.058655 362.083679,67.504692 361.656281,74.962784 
	C358.535645,71.553749 355.715271,68.296654 353.341064,65.024628 
	C358.431946,65.691162 360.438538,64.003365 360.092529,59.024178 
	C359.701935,53.403111 359.917694,47.732891 360.025787,42.087032 
	C360.083069,39.093170 358.827789,37.909214 355.868744,37.966133 
	C350.388977,38.071537 344.905609,37.987103 339.423737,37.988789 
	C331.922089,37.991100 331.922089,37.993927 331.744843,45.647259 
	C327.271973,42.401283 323.115509,39.250668 319.284790,35.847881 
	C321.243805,35.401745 322.900330,34.932571 324.505829,35.068073 
	C328.499146,35.405113 330.296692,34.064575 330.072021,29.765724 
	C329.777008,24.121384 329.889648,18.447104 330.040558,12.791399 
	C330.127838,9.520861 329.193634,7.841020 325.555908,7.945534 
	C319.069183,8.131900 312.572113,8.074943 306.081848,7.968113 
	C303.064026,7.918441 301.936676,9.200793 301.968079,12.150469 
	C302.015839,16.639002 301.808441,21.130249 301.435883,25.608559 
	C300.724304,25.285471 300.286194,24.974167 299.880951,24.150066 
	C299.943726,20.164068 299.815277,16.680294 300.046326,13.220523 
	C300.295959,9.482028 299.099304,7.753947 295.043365,7.924627 
	C288.933777,8.181729 282.801422,8.123122 276.686523,7.940125 
	C273.332855,7.839762 271.677704,9.033753 271.613281,12.455667 
	C271.379089,12.457932 271.030518,12.145149 270.881165,11.793341 
	C270.025421,8.529808 268.044464,7.666997 265.277191,8.011176 
	C263.217834,8.267311 261.152405,8.474644 258.711823,8.720772 
	C256.906097,8.260508 255.478195,7.783184 254.085785,7.204386 
	C254.121246,7.102913 254.206406,6.905509 254.600952,6.824505 
	C258.281342,6.494553 261.578827,5.946782 264.849915,6.074712 
	C268.664886,6.223911 270.548126,4.997495 270.000000,1.000000 
	C270.444336,1.000000 270.888672,1.000000 271.667908,1.421312 
	C271.656158,5.220392 273.457306,6.089197 276.493408,6.029021 
	C282.778442,5.904452 289.074036,5.821149 295.352814,6.055520 
	C299.223602,6.200006 300.396240,4.473280 300.000000,1.000000 
	C300.444336,1.000000 300.888672,1.000000 301.667725,1.421320 
	C301.737976,4.791887 302.999481,6.080122 306.039307,6.023598 
	C312.363129,5.906007 318.692932,5.889399 325.015869,6.029320 
	C328.641907,6.109561 330.322388,4.644101 330.000000,1.000000 
	C330.444336,1.000000 330.888672,1.000000 331.667664,1.421326 
	C331.737793,4.791906 332.999359,6.080076 336.039093,6.023577 
	C342.362823,5.906037 348.692505,5.889337 355.015350,6.029364 
	C358.641571,6.109671 360.321472,4.643574 360.000000,1.000000 
	C360.444336,1.000000 360.888672,1.000000 361.667480,1.421339 
	C361.737091,4.792039 362.999268,6.079850 366.038391,6.023483 
	C372.361633,5.906206 378.690857,5.889273 385.013214,6.029402 
	C388.639526,6.109776 390.317841,4.641489 390.000000,1.000000 
	C390.444336,1.000000 390.888672,1.000000 391.667145,1.421338 
	C391.736938,4.787446 392.993256,6.097423 396.032196,6.022191 
	C401.018616,5.898749 406.010437,5.995883 411.000000,6.000000 
	C411.000000,6.444336 411.000000,6.888672 410.531586,7.664031 
	C405.427551,7.997042 400.790039,8.079609 396.156982,7.971674 
	C393.242767,7.903780 391.921875,9.017240 391.973816,12.037134 
	C392.082062,18.326456 392.078430,24.620136 391.974396,30.909605 
	C391.925354,33.875568 393.134979,35.101864 396.100525,35.034760 
	C401.064728,34.922421 406.033295,35.001484 411.000000,35.000000 
	C411.000000,35.750000 411.000000,36.500000 410.531555,37.621574 
	C405.427490,37.994801 400.789978,38.076660 396.156860,37.968903 
	C393.242401,37.901115 391.922211,39.016850 391.973969,42.035778 
	C392.081787,48.325157 392.078400,54.618885 391.974182,60.908394 
	C391.925018,63.874825 393.134857,65.099838 396.100433,65.032860 
	C401.064667,64.920738 406.033234,65.000816 411.000000,65.000000 
	C411.000000,65.750000 411.000000,66.500000 410.531586,67.620918 
	C405.427521,67.993248 400.789978,68.074677 396.156860,67.966949 
	C393.242065,67.899170 391.922455,69.016647 391.974060,72.034752 
	C392.081604,78.324158 392.078827,84.617889 391.974213,90.907402 
	C391.924866,93.874596 393.135040,95.097931 396.100372,95.031105 
	C401.064606,94.919243 406.033234,95.000198 411.000000,95.000000 
M366.736359,35.011505 
	C373.045654,35.009995 379.357056,34.910690 385.663330,35.047539 
	C388.898041,35.117737 390.103668,33.802982 390.033081,30.620026 
	C389.896881,24.479792 389.923401,18.333317 390.021759,12.191660 
	C390.068176,9.293249 389.022217,7.920516 385.971375,7.969542 
	C379.331757,8.076238 372.688049,8.076242 366.048462,7.968914 
	C363.016724,7.919907 361.928162,9.245900 361.975159,12.166207 
	C362.076721,18.473854 362.057312,24.784800 361.985901,31.093248 
	C361.955383,33.791157 363.036377,35.160042 366.736359,35.011505 
M333.125061,34.483315 
	C341.071075,34.644554 349.019440,34.939762 356.960327,34.802589 
	C357.987640,34.784843 359.788483,32.568874 359.846436,31.307558 
	C360.143311,24.843468 359.938568,18.358009 360.011658,11.881176 
	C360.042358,9.159909 358.909821,7.954567 356.158844,7.982468 
	C349.349670,8.051529 342.530548,7.828454 335.737335,8.165148 
	C334.447845,8.229062 332.221527,10.305445 332.193420,11.494948 
	C332.017792,18.937788 332.343109,26.392450 333.125061,34.483315 
M388.010681,64.830826 
	C388.626862,64.133347 389.763550,63.447147 389.778931,62.736660 
	C389.937195,55.435291 390.059265,48.124222 389.770142,40.832558 
	C389.730865,39.841747 387.412018,38.184372 386.094147,38.128811 
	C379.463135,37.849258 372.811890,38.099304 366.172211,37.956028 
	C362.787781,37.882996 361.904572,39.502998 361.966339,42.541142 
	C362.087891,48.517170 362.135529,54.501511 361.951752,60.474358 
	C361.843140,64.003868 363.322418,65.137672 366.686249,65.054306 
	C373.491028,64.885658 380.302246,64.975990 388.010681,64.830826 
z"/>
<path fill="#E49D7C" opacity="1.000000" stroke="none" 
	d="
M362.000000,409.000000 
	C361.555664,409.000000 361.111328,409.000000 360.334290,408.538177 
	C360.001740,406.257935 359.828094,404.419342 360.036713,402.625153 
	C360.537109,398.321381 358.881683,396.544952 354.457764,396.936127 
	C351.013245,397.240753 347.520142,396.996399 344.048645,396.996368 
	C331.985931,396.996277 331.985931,396.996338 332.000000,409.000000 
	C331.555664,409.000000 331.111328,409.000000 330.334259,408.538177 
	C330.001678,406.257935 329.827942,404.419250 330.036591,402.625092 
	C330.537109,398.321564 328.882629,396.544617 324.458191,396.936127 
	C321.013641,397.240967 317.520508,396.996399 314.048950,396.996368 
	C301.985992,396.996277 301.985992,396.996338 302.000000,409.000000 
	C301.555664,409.000000 301.111328,409.000000 300.334229,408.538177 
	C300.001648,406.257935 299.827942,404.419312 300.036591,402.625122 
	C300.536987,398.321899 298.883179,396.544373 294.458466,396.936035 
	C291.013947,397.240967 287.520844,396.996399 284.049316,396.996368 
	C271.989258,396.996277 271.989258,396.996338 272.000000,409.000000 
	C271.555664,409.000000 271.111328,409.000000 270.336121,408.537476 
	C269.493225,404.275909 268.981140,400.476898 268.756561,396.447266 
	C271.361511,395.475098 273.678955,394.733490 276.332733,394.234558 
	C283.420380,394.639435 290.172729,394.911346 296.921814,394.845245 
	C297.930756,394.835388 299.769623,393.239716 299.770111,392.376801 
	C299.771729,389.519257 299.108002,386.661316 298.900696,383.556854 
	C300.072174,382.906342 301.042511,382.502533 302.013062,382.556824 
	C302.007080,385.178833 302.161591,387.357880 301.959808,389.503387 
	C301.585602,393.482086 302.926849,395.289246 307.234650,395.077301 
	C313.212646,394.783203 319.218506,394.896667 325.207275,395.044617 
	C328.477448,395.125366 330.155975,394.195679 330.051514,390.558289 
	C329.865234,384.071838 329.908203,377.574402 330.038025,371.085205 
	C330.098541,368.060669 328.844696,366.774323 326.079895,366.683716 
	C328.182617,364.983398 330.111938,363.563965 332.087494,362.532288 
	C332.774933,363.573181 333.406250,364.782928 334.058960,364.794617 
	C341.861450,364.934143 349.668243,364.957703 357.470184,364.811066 
	C358.278992,364.795868 359.766418,363.478271 359.752716,362.788544 
	C359.578979,354.042175 359.187744,345.300140 358.932861,336.260529 
	C359.981140,334.915894 360.948425,333.867676 362.070526,333.195465 
	C362.879974,334.016083 363.529205,334.838257 364.190002,334.847626 
	C371.794312,334.955566 379.405609,335.079529 386.999878,334.794556 
	C388.038635,334.755615 389.753204,332.573883 389.852600,331.283875 
	C390.207336,326.680450 390.004242,322.033752 390.005341,317.403412 
	C390.007660,307.554016 390.005890,307.554016 380.334564,306.410034 
	C380.665405,305.704102 380.987183,305.272919 381.801453,304.875702 
	C384.800690,304.297150 389.325134,303.956451 389.450867,303.023071 
	C389.899170,299.696075 392.075104,295.488159 387.697845,292.508179 
	C388.291748,291.105865 388.850220,290.060150 389.681091,289.012085 
	C390.317200,289.001038 390.680878,288.992371 391.273285,289.328369 
	C391.667419,293.279205 392.043823,296.891571 391.938202,300.489807 
	C391.835449,303.990814 393.302155,305.161377 396.649414,305.042389 
	C401.427399,304.872589 406.215973,304.999725 411.000000,305.000000 
	C411.000000,305.444336 411.000000,305.888672 410.531586,306.666016 
	C405.427338,307.001709 400.789581,307.085968 396.156372,306.977325 
	C393.243164,306.908997 391.922302,308.015411 391.971008,311.038239 
	C392.077728,317.659149 392.074524,324.284027 391.971436,330.905060 
	C391.925201,333.875031 393.135132,335.090424 396.099792,335.023773 
	C401.064209,334.912170 406.033020,334.997559 411.000000,335.000000 
	C411.000000,335.444336 411.000000,335.888672 410.531586,336.665833 
	C405.427338,337.001221 400.789612,337.085297 396.156403,336.976746 
	C393.243378,336.908508 391.922333,338.015137 391.971069,341.037842 
	C392.077759,347.658722 392.074341,354.283600 391.971619,360.904602 
	C391.925568,363.873688 393.134827,365.090820 396.099854,365.024200 
	C401.064240,364.912628 406.033051,364.997681 411.000000,365.000000 
	C411.000000,365.444336 411.000000,365.888672 410.531586,366.665588 
	C405.427338,367.000641 400.789612,367.084442 396.156372,366.975861 
	C393.243286,366.907623 391.922333,368.014801 391.971039,371.037292 
	C392.077698,377.658203 392.074310,384.283081 391.971802,390.904114 
	C391.925842,393.872620 393.134460,395.090942 396.099823,395.024323 
	C401.064209,394.912781 406.033051,394.997742 411.000000,395.000000 
	C411.000000,395.444336 411.000000,395.888672 410.531586,396.665344 
	C408.074982,396.997223 406.086823,396.996399 404.098633,396.996399 
	C391.977844,396.996277 391.977844,396.996338 392.000000,409.000000 
	C391.555664,409.000000 391.111328,409.000000 390.334198,408.538177 
	C390.001526,406.257996 389.828125,404.419464 390.036346,402.625244 
	C390.535767,398.321930 388.880219,396.545044 384.456512,396.936127 
	C381.012024,397.240631 377.519043,396.996399 374.047607,396.996368 
	C361.981720,396.996277 361.981720,396.996338 362.000000,409.000000 
M342.533661,395.002441 
	C346.682617,395.001770 350.838409,394.853699 354.978424,395.045654 
	C358.479767,395.208008 360.194824,394.163208 360.059174,390.307709 
	C359.837494,384.009094 359.901398,377.694916 360.036896,371.391449 
	C360.105225,368.213348 358.917816,366.893707 355.678406,366.963013 
	C349.209015,367.101471 342.732391,367.104034 336.263153,366.962585 
	C332.971375,366.890594 331.868317,368.318024 331.964233,371.446808 
	C332.106628,376.089203 331.969849,380.739471 332.002045,385.386078 
	C332.076599,396.155945 330.848602,394.909668 342.533661,395.002441 
M390.002441,374.599915 
	C389.980438,367.002502 389.980438,366.999664 382.413483,366.997650 
	C376.936462,366.996216 371.458771,367.057037 365.982758,366.984161 
	C363.335907,366.948944 361.960846,367.904572 361.988586,370.730072 
	C362.055328,377.534149 362.054810,384.339813 361.984650,391.143829 
	C361.956390,393.879120 363.124664,395.042725 365.858673,395.013916 
	C372.496704,394.944000 379.138153,394.894318 385.773956,395.035828 
	C389.103424,395.106781 390.116760,393.596863 390.033447,390.507965 
	C389.899200,385.532501 390.000610,380.550720 390.002441,374.599915 
M373.522064,336.997528 
	C371.364807,336.998199 369.191010,337.169556 367.053833,336.962708 
	C363.083923,336.578339 361.788544,338.301056 361.934937,342.152710 
	C362.167969,348.283813 362.094513,354.432190 361.961578,360.569183 
	C361.893555,363.710388 363.002563,365.108124 366.279297,365.036682 
	C372.747986,364.895691 379.224030,364.897247 385.692810,365.036011 
	C388.946381,365.105804 390.102844,363.753418 390.035919,360.591034 
	C389.902527,354.288055 389.883057,347.977264 390.045441,341.675568 
	C390.132294,338.305817 388.983093,336.774231 385.461456,336.959595 
	C381.820862,337.151215 378.162231,336.999237 373.522064,336.997528 
z"/>
<path fill="#E29B7B" opacity="1.000000" stroke="none" 
	d="
M32.000000,409.000000 
	C31.555664,409.000000 31.111328,409.000000 30.336765,408.538147 
	C30.007690,406.416016 29.829819,404.732269 30.043734,403.099915 
	C30.672918,398.298645 28.725225,396.674408 23.907106,396.898254 
	C16.286276,397.252289 8.637151,396.997284 1.000000,397.000000 
	C1.000000,396.555664 1.000000,396.111328 1.468628,395.327332 
	C9.732807,394.993073 17.530315,394.898376 25.322994,395.050690 
	C28.678078,395.116241 30.157322,394.008972 30.056131,390.480499 
	C29.875528,384.182892 29.880449,377.872894 30.055658,371.574951 
	C30.152143,368.106750 28.796700,366.881683 25.380810,366.946747 
	C17.256485,367.101562 9.127251,366.998749 1.000000,367.000000 
	C1.000000,366.555664 1.000000,366.111328 1.468629,365.327454 
	C9.732797,364.993103 17.530294,364.898102 25.322960,365.050323 
	C28.677582,365.115845 30.157637,364.010284 30.056252,360.480988 
	C29.875341,354.183411 29.880379,347.873413 30.055691,341.575470 
	C30.152243,338.106903 28.796476,336.882782 25.380756,336.947784 
	C17.256449,337.102417 9.127233,336.999115 1.000000,337.000000 
	C1.000000,336.555664 1.000000,336.111328 1.468629,335.327454 
	C9.720922,334.993073 17.506355,334.903229 25.287411,335.048309 
	C28.591553,335.109894 30.153782,334.096710 30.054113,330.529510 
	C29.836823,322.752350 29.889071,314.967651 29.957184,307.066559 
	C30.083193,306.947083 30.337790,306.715942 30.602221,306.915192 
	C31.988577,309.043945 33.110504,310.973419 33.849655,313.051147 
	C33.112789,313.537689 32.458298,313.868195 32.449234,314.215515 
	C32.289211,320.345764 32.148464,326.478516 32.188187,332.609467 
	C32.192902,333.337830 33.309692,334.710480 33.854633,334.682617 
	C39.032372,334.417786 44.197918,333.914612 49.649940,333.638794 
	C50.670918,334.845093 51.408928,335.892578 51.669090,336.959229 
	C46.366440,336.983765 41.537392,337.114502 36.718288,336.951477 
	C33.379742,336.838531 31.840111,337.936554 31.944403,341.505035 
	C32.129021,347.821808 32.126938,354.151642 31.944788,360.468567 
	C31.842672,364.009857 33.328472,365.136719 36.693222,365.051239 
	C43.011345,364.890625 49.338593,364.903717 55.657665,365.043152 
	C58.890476,365.114441 60.117298,363.825012 60.048283,360.623016 
	C59.940819,355.637177 60.119812,350.645172 60.480705,345.793396 
	C62.004623,347.219452 63.225239,348.507874 64.047485,349.949280 
	C63.184635,354.482422 62.644093,358.857697 62.359772,363.249512 
	C62.327221,363.752350 63.740864,364.841705 64.461006,364.821960 
	C69.974518,364.670807 75.482346,364.312225 81.299255,364.106995 
	C82.549217,365.052094 83.491867,365.908325 83.939293,366.822968 
	C77.783623,366.920044 72.121162,367.063782 66.463516,366.955933 
	C63.333252,366.896240 61.884659,367.954620 61.957615,371.265411 
	C62.100647,377.756104 62.063824,384.253052 61.970665,390.745544 
	C61.929611,393.606598 62.872498,395.080048 65.977211,395.029694 
	C72.635773,394.921722 79.298569,394.921722 85.957092,395.031494 
	C89.007324,395.081787 90.068535,393.735413 90.033035,390.815613 
	C89.952080,384.156769 90.044090,377.495850 90.374954,370.907776 
	C91.504860,371.624023 92.325630,372.268280 92.881348,373.243195 
	C92.408569,379.170990 92.280037,384.772552 91.963615,390.363495 
	C91.771599,393.756226 93.066422,395.170105 96.551010,395.054413 
	C102.011559,394.873138 107.482628,395.013733 112.949242,395.009460 
	C119.956299,395.003998 119.956299,395.000336 120.319901,387.932343 
	C121.086151,388.259247 121.559517,388.575317 122.024452,389.327454 
	C122.824821,391.478912 123.499222,394.563110 124.467148,394.658203 
	C127.616142,394.967438 130.872482,394.183533 134.449081,393.826355 
	C136.540054,394.557037 138.269440,395.281799 139.660400,396.244019 
	C137.534821,396.651276 135.748566,396.957367 133.960388,396.968872 
	C121.972038,397.046082 121.971909,397.025757 122.000000,409.000000 
	C121.555664,409.000000 121.111328,409.000000 120.335976,408.538147 
	C120.005730,406.257263 119.833145,404.418060 120.041817,402.623199 
	C120.542015,398.320862 118.892876,396.538208 114.463928,396.931213 
	C111.018372,397.236908 107.523941,396.991516 104.051231,396.991486 
	C91.973984,396.991394 91.973984,396.991486 92.000000,409.000000 
	C91.555664,409.000000 91.111328,409.000000 90.336212,408.538147 
	C90.006302,406.257263 89.833916,404.418091 90.042557,402.623199 
	C90.542648,398.320892 88.893204,396.538361 84.464447,396.931213 
	C81.018898,397.236877 77.524490,396.991516 74.051796,396.991516 
	C61.973160,396.991394 61.973160,396.991486 62.000000,409.000000 
	C61.555664,409.000000 61.111328,409.000000 60.336517,408.538147 
	C60.007019,406.257233 59.834953,404.418121 60.043476,402.623199 
	C60.543266,398.321106 58.893890,396.538300 54.465134,396.931152 
	C51.019604,397.236786 47.525223,396.991547 44.052555,396.991516 
	C31.973555,396.991394 31.973555,396.991455 32.000000,409.000000 
M36.737122,395.004211 
	C43.048447,395.002869 49.361961,394.902313 55.670193,395.041382 
	C58.903851,395.112671 60.110039,393.809906 60.043255,390.620850 
	C59.907669,384.146271 59.934383,377.665894 60.031799,371.189941 
	C60.075417,368.290466 59.036438,366.919067 55.982346,366.969025 
	C49.340637,367.077728 42.694740,367.076477 36.052975,366.969574 
	C33.027485,366.920868 31.926168,368.231812 31.970404,371.159943 
	C32.070740,377.801941 32.051655,384.446991 31.981524,391.089722 
	C31.952993,393.791901 33.039257,395.153748 36.737122,395.004211 
z"/>
<path fill="#E59E7D" opacity="1.000000" stroke="none" 
	d="
M29.993940,64.993073 
	C29.995874,57.518116 29.882488,50.040558 30.050745,42.569347 
	C30.129187,39.086273 28.767801,37.873749 25.357817,37.943027 
	C17.553762,38.101562 9.744467,38.001980 1.468650,38.003609 
	C1.000000,37.250000 1.000000,36.500000 1.468660,35.374062 
	C9.767354,35.002445 17.599848,34.893188 25.426304,35.062683 
	C28.935530,35.138680 30.170071,33.747303 30.045645,30.339903 
	C29.869459,25.515064 30.004757,20.678917 30.003582,15.847604 
	C30.001673,7.994373 29.997932,8.118263 22.116793,7.953285 
	C15.350130,7.811636 8.590298,7.343684 1.895933,6.972699 
	C1.964421,6.925372 2.101596,6.831006 2.269313,6.724886 
	C2.646082,6.448561 2.817364,6.246338 3.422596,6.007930 
	C10.871844,6.000796 17.854452,5.837639 24.824879,6.058665 
	C28.629623,6.179310 30.559511,5.030327 30.000000,1.000000 
	C30.444445,1.000000 30.888889,1.000000 31.671982,1.405881 
	C31.878595,5.189126 33.869293,6.037635 36.804211,6.008353 
	C42.968800,5.946848 49.141121,5.819237 55.297241,6.056649 
	C59.163357,6.205746 60.421104,4.535667 60.000000,1.000000 
	C60.444447,1.000000 60.888889,1.000000 61.671898,1.405960 
	C61.875942,5.191288 63.868793,6.037348 66.802948,6.008224 
	C72.967766,5.947035 79.140343,5.818968 85.296654,6.056750 
	C89.163498,6.206103 90.419922,4.534966 90.000000,1.000000 
	C90.444443,1.000000 90.888893,1.000000 91.667953,1.421267 
	C91.656967,5.220358 93.458870,6.089561 96.494804,6.029556 
	C102.780334,5.905321 109.076439,5.821800 115.355698,6.056203 
	C119.227562,6.200738 120.399498,4.474266 120.000000,1.000000 
	C120.444443,1.000000 120.888893,1.000000 121.665901,1.437393 
	C122.016502,3.915741 122.034538,5.956696 122.034714,8.455830 
	C122.580460,12.120321 123.144051,15.326634 123.458466,18.768538 
	C122.134735,19.290449 121.060173,19.576769 119.986412,19.410149 
	C119.992821,17.298016 119.816154,15.613998 120.038094,13.984265 
	C120.712196,9.034364 118.457512,7.636471 113.791763,7.909101 
	C108.004150,8.247286 102.179604,8.093844 96.375656,7.956398 
	C93.185829,7.880857 91.893478,9.106952 91.964737,12.331766 
	C92.136978,20.126028 92.111145,27.924667 92.003372,35.979137 
	C90.277969,37.275761 88.714348,38.314789 86.999268,38.963837 
	C82.546921,38.051682 78.249466,37.119411 73.944519,37.083435 
	C60.467327,36.970821 61.982941,35.573177 62.082508,49.068729 
	C62.106792,52.360725 63.219063,55.644695 63.718731,59.230862 
	C62.475067,60.492298 61.343761,61.455231 60.157829,61.923279 
	C60.069206,55.266937 59.885704,49.101284 60.058155,42.945606 
	C60.159050,39.343872 58.991100,37.799229 55.211704,37.932114 
	C49.057156,38.148514 42.883644,38.152451 36.729420,37.931561 
	C32.882904,37.793503 31.862356,39.476021 31.947924,43.009434 
	C32.125278,50.333153 32.004993,57.664078 31.749319,65.105621 
	C30.993359,65.479065 30.495167,65.738945 29.996666,65.747391 
	C29.995552,65.328331 29.994747,65.160706 29.993940,64.993073 
M32.505520,33.845345 
	C33.057030,34.182396 33.604786,34.805992 34.160614,34.813274 
	C41.797009,34.913303 49.441120,35.088764 57.063969,34.775085 
	C58.095303,34.732639 59.787128,32.169693 59.862644,30.706215 
	C60.178898,24.576992 59.894051,18.419638 60.037174,12.277431 
	C60.113636,8.996055 58.705345,7.893057 55.563164,7.957289 
	C49.088112,8.089650 42.607399,8.069843 36.131268,7.968603 
	C33.172127,7.922342 31.915066,9.095256 31.978786,12.088960 
	C32.127163,19.059862 32.120449,26.034065 32.505520,33.845345 
M66.736755,35.012707 
	C73.046722,35.011284 79.358826,34.911514 85.665756,35.049232 
	C88.899773,35.119854 90.107361,33.810913 90.036049,30.624876 
	C89.898605,24.484037 89.925766,18.336857 90.024643,12.194559 
	C90.071251,9.299630 89.036873,7.918667 85.980644,7.968173 
	C79.340340,8.075733 72.695923,8.074558 66.055573,7.968395 
	C63.029366,7.920013 61.928986,9.236467 61.976254,12.161840 
	C62.078178,18.470150 62.058300,24.781775 61.987110,31.090902 
	C61.956676,33.787785 63.036213,35.159256 66.736755,35.012707 
z"/>
<path fill="#F7AB87" opacity="1.000000" stroke="none" 
	d="
M1.000000,337.468658 
	C9.127233,336.999115 17.256449,337.102417 25.380756,336.947784 
	C28.796476,336.882782 30.152243,338.106903 30.055691,341.575470 
	C29.880379,347.873413 29.875341,354.183411 30.056252,360.480988 
	C30.157637,364.010284 28.677582,365.115845 25.322960,365.050323 
	C17.530294,364.898102 9.732797,364.993103 1.468629,364.993958 
	C1.000000,355.979095 1.000000,346.958221 1.000000,337.468658 
z"/>
<path fill="#F7AB87" opacity="1.000000" stroke="none" 
	d="
M29.831177,307.186035 
	C29.889071,314.967651 29.836823,322.752350 30.054113,330.529510 
	C30.153782,334.096710 28.591553,335.109894 25.287411,335.048309 
	C17.506355,334.903229 9.720922,334.993073 1.468629,334.993958 
	C1.000000,325.979095 1.000000,316.958221 1.468629,307.474701 
	C11.235231,307.070068 20.533203,307.128052 29.831177,307.186035 
z"/>
<path fill="#F7AB87" opacity="1.000000" stroke="none" 
	d="
M1.000000,367.468658 
	C9.127251,366.998749 17.256485,367.101562 25.380810,366.946747 
	C28.796700,366.881683 30.152143,368.106750 30.055658,371.574951 
	C29.880449,377.872894 29.875528,384.182892 30.056131,390.480499 
	C30.157322,394.008972 28.678078,395.116241 25.322994,395.050690 
	C17.530315,394.898376 9.732807,394.993073 1.468628,394.993835 
	C1.000000,385.979095 1.000000,376.958221 1.000000,367.468658 
z"/>
<path fill="#F7AB87" opacity="1.000000" stroke="none" 
	d="
M1.827444,7.020027 
	C8.590298,7.343684 15.350130,7.811636 22.116793,7.953285 
	C29.997932,8.118263 30.001673,7.994373 30.003582,15.847604 
	C30.004757,20.678917 29.869459,25.515064 30.045645,30.339903 
	C30.170071,33.747303 28.935530,35.138680 25.426304,35.062683 
	C17.599848,34.893188 9.767354,35.002445 1.468660,34.999062 
	C1.000000,25.979103 1.000000,16.958208 1.206865,7.473524 
	C1.413729,7.009735 1.827444,7.020027 1.827444,7.020027 
z"/>
<path fill="#F6AA86" opacity="1.000000" stroke="none" 
	d="
M3.058404,97.008659 
	C11.418022,96.340385 19.777639,95.672112 28.593674,95.363800 
	C29.730528,96.947624 30.410967,98.171478 30.897110,99.659256 
	C28.351723,104.603027 26.000629,109.282883 23.330044,114.092346 
	C22.449244,115.708160 21.887938,117.194366 21.298550,119.011703 
	C20.312506,121.285248 19.354540,123.227661 17.905283,125.134567 
	C11.942661,125.066040 6.471331,125.033020 1.000000,125.000000 
	C1.000000,115.979103 1.000000,106.958214 1.342569,97.478989 
	C2.142894,97.016655 2.600649,97.012657 3.058404,97.008659 
z"/>
<path fill="#F1A683" opacity="1.000000" stroke="none" 
	d="
M268.469055,396.677856 
	C268.981140,400.476898 269.493225,404.275909 270.002625,408.537476 
	C230.312439,409.000000 190.624878,409.000000 150.467102,408.548859 
	C149.995987,405.099548 149.995102,402.101410 150.389969,399.099548 
	C172.843750,404.875092 195.205673,407.390625 218.030243,405.975586 
	C235.246826,404.908173 251.959656,401.421539 268.469055,396.677856 
z"/>
<path fill="#F4A985" opacity="1.000000" stroke="none" 
	d="
M1.000000,305.000000 
	C1.000000,295.979095 1.000000,286.958221 1.466155,277.472321 
	C6.624580,277.003998 11.316852,277.000702 16.254679,277.246948 
	C20.494318,286.085419 24.488400,294.674286 28.161407,303.598145 
	C25.952707,304.291748 24.069817,304.927307 22.176615,304.959656 
	C15.119576,305.080353 8.059154,305.003021 1.000000,305.000000 
z"/>
<path fill="#F7AB87" opacity="1.000000" stroke="none" 
	d="
M391.056885,119.019463 
	C391.370453,113.816154 391.960846,108.610016 391.907501,103.410469 
	C391.866852,99.449471 392.994629,97.643517 397.219269,97.924606 
	C401.483154,98.208328 405.780518,97.989349 410.531616,97.995300 
	C411.000000,107.354225 411.000000,116.708458 410.534088,126.531395 
	C405.392670,127.000130 400.717194,127.000145 395.980652,126.742241 
	C395.275208,126.295761 394.630798,126.107208 393.752472,125.918007 
	C393.206818,125.885292 392.895172,125.886223 392.352875,125.665741 
	C391.655060,124.138870 391.188019,122.866402 390.811981,121.169548 
	C390.954315,120.169930 391.005615,119.594696 391.056885,119.019463 
z"/>
<path fill="#F7AB87" opacity="1.000000" stroke="none" 
	d="
M411.000000,394.531342 
	C406.033051,394.997742 401.064209,394.912781 396.099823,395.024323 
	C393.134460,395.090942 391.925842,393.872620 391.971802,390.904114 
	C392.074310,384.283081 392.077698,377.658203 391.971039,371.037292 
	C391.922333,368.014801 393.243286,366.907623 396.156372,366.975861 
	C400.789612,367.084442 405.427338,367.000641 410.531586,366.999084 
	C411.000000,376.020905 411.000000,385.041779 411.000000,394.531342 
z"/>
<path fill="#F7AB87" opacity="1.000000" stroke="none" 
	d="
M411.000000,334.531372 
	C406.033020,334.997559 401.064209,334.912170 396.099792,335.023773 
	C393.135132,335.090424 391.925201,333.875031 391.971436,330.905060 
	C392.074524,324.284027 392.077728,317.659149 391.971008,311.038239 
	C391.922302,308.015411 393.243164,306.908997 396.156372,306.977325 
	C400.789581,307.085968 405.427338,307.001709 410.531586,306.999512 
	C411.000000,316.020905 411.000000,325.041779 411.000000,334.531372 
z"/>
<path fill="#F7AB87" opacity="1.000000" stroke="none" 
	d="
M411.000000,364.531342 
	C406.033051,364.997681 401.064240,364.912628 396.099854,365.024200 
	C393.134827,365.090820 391.925568,363.873688 391.971619,360.904602 
	C392.074341,354.283600 392.077759,347.658722 391.971069,341.037842 
	C391.922333,338.015137 393.243378,336.908508 396.156403,336.976746 
	C400.789612,337.085297 405.427338,337.001221 410.531586,336.999329 
	C411.000000,346.020905 411.000000,355.041779 411.000000,364.531342 
z"/>
<path fill="#F6AB87" opacity="1.000000" stroke="none" 
	d="
M411.000000,304.531342 
	C406.215973,304.999725 401.427399,304.872589 396.649414,305.042389 
	C393.302155,305.161377 391.835449,303.990814 391.938202,300.489807 
	C392.043823,296.891571 391.667419,293.279205 391.250854,288.906250 
	C390.920502,287.580872 390.841248,287.022247 390.793610,286.123016 
	C391.387817,284.538300 391.950409,283.294220 392.796326,281.889099 
	C393.268860,280.923492 393.458038,280.118927 393.647766,279.037720 
	C394.006317,278.140991 394.364349,277.520905 395.205994,276.927490 
	C400.793060,276.969421 405.896515,276.984711 411.000000,277.000000 
	C411.000000,286.020905 411.000000,295.041779 411.000000,304.531342 
z"/>
<path fill="#F7AB87" opacity="1.000000" stroke="none" 
	d="
M411.000000,34.531342 
	C406.033295,35.001484 401.064728,34.922421 396.100525,35.034760 
	C393.134979,35.101864 391.925354,33.875568 391.974396,30.909605 
	C392.078430,24.620136 392.082062,18.326456 391.973816,12.037134 
	C391.921875,9.017240 393.242767,7.903780 396.156982,7.971674 
	C400.790039,8.079609 405.427551,7.997042 410.531586,7.997527 
	C411.000000,16.687563 411.000000,25.375128 411.000000,34.531342 
z"/>
<path fill="#F7AB87" opacity="1.000000" stroke="none" 
	d="
M411.000000,94.531342 
	C406.033234,95.000198 401.064606,94.919243 396.100372,95.031105 
	C393.135040,95.097931 391.924866,93.874596 391.974213,90.907402 
	C392.078827,84.617889 392.081604,78.324158 391.974060,72.034752 
	C391.922455,69.016647 393.242065,67.899170 396.156860,67.966949 
	C400.789978,68.074677 405.427521,67.993248 410.531586,67.995918 
	C411.000000,76.687561 411.000000,85.375130 411.000000,94.531342 
z"/>
<path fill="#F7AB87" opacity="1.000000" stroke="none" 
	d="
M411.000000,64.531342 
	C406.033234,65.000816 401.064667,64.920738 396.100433,65.032860 
	C393.134857,65.099838 391.925018,63.874825 391.974182,60.908394 
	C392.078400,54.618885 392.081787,48.325157 391.973969,42.035778 
	C391.922211,39.016850 393.242401,37.901115 396.156860,37.968903 
	C400.789978,38.076660 405.427490,37.994801 410.531555,37.996574 
	C411.000000,46.687565 411.000000,55.375126 411.000000,64.531342 
z"/>
<path fill="#EDA380" opacity="1.000000" stroke="none" 
	d="
M411.000000,155.000000 
	C411.000000,184.687561 411.000000,214.375122 410.602844,244.535461 
	C408.192963,244.681824 406.180298,244.355392 404.120789,243.640472 
	C404.285858,242.509949 404.497742,241.767960 404.933716,240.899338 
	C405.177795,239.871002 405.197815,238.969284 405.169922,237.673584 
	C405.340057,236.527924 405.558105,235.776245 405.993958,234.888885 
	C406.193909,233.852234 406.176025,232.951279 406.093506,231.625977 
	C406.278198,229.809128 406.527496,228.416595 406.994568,226.888153 
	C407.193451,225.851456 407.174591,224.950699 407.070862,223.609192 
	C407.248718,221.118896 407.511414,219.069305 408.046356,216.783813 
	C408.546173,210.191422 408.880798,203.835861 408.933929,197.477936 
	C408.949249,195.648071 408.153229,193.811417 407.570129,191.557983 
	C407.324707,188.741135 407.238312,186.344177 407.338104,183.713837 
	C407.226868,182.312180 406.929474,181.143906 406.464752,179.598145 
	C406.252075,178.128677 406.206726,177.036697 406.334534,175.749115 
	C406.256958,174.693573 406.006226,173.833664 405.566589,172.625854 
	C405.317230,171.496643 405.256744,170.715347 405.364624,169.732178 
	C405.246826,168.678024 404.960663,167.825745 404.493896,166.625229 
	C404.257263,165.501770 404.201202,164.726517 404.295197,163.794464 
	C404.195038,163.082199 403.944855,162.526733 403.510284,161.660599 
	C403.293945,160.874313 403.261963,160.398727 403.416199,159.639420 
	C403.744904,158.228867 403.887390,157.102005 404.385376,155.818176 
	C406.827240,155.440796 408.913605,155.220398 411.000000,155.000000 
z"/>
<path fill="#F7AB87" opacity="1.000000" stroke="none" 
	d="
M411.000000,154.531342 
	C408.913605,155.220398 406.827240,155.440796 404.180573,155.616867 
	C402.947540,154.695663 402.274811,153.818787 401.407837,152.619415 
	C400.881287,150.843536 400.549011,149.390152 400.368103,147.774139 
	C400.223419,147.054001 399.927368,146.496490 399.431488,145.600098 
	C398.036652,141.401520 396.841644,137.541824 395.711853,133.353088 
	C395.343353,132.332565 394.909668,131.641098 394.272766,130.676025 
	C393.888763,129.752716 393.708008,129.103043 393.869690,128.321243 
	C394.821960,127.792801 395.431824,127.396477 396.041687,127.000168 
	C400.717194,127.000145 405.392670,127.000130 410.534088,127.000053 
	C411.000000,136.020889 411.000000,145.041794 411.000000,154.531342 
z"/>
<path fill="#F7AB87" opacity="1.000000" stroke="none" 
	d="
M1.000000,397.458069 
	C8.637151,396.997284 16.286276,397.252289 23.907106,396.898254 
	C28.725225,396.674408 30.672918,398.298645 30.043734,403.099915 
	C29.829819,404.732269 30.007690,406.416016 30.003269,408.538147 
	C20.979105,409.000000 11.958208,409.000000 2.334990,408.801453 
	C1.541449,408.337494 1.297227,408.136536 1.000000,408.000000 
	C1.000000,404.638702 1.000000,401.277435 1.000000,397.458069 
z"/>
<path fill="#EDA380" opacity="1.000000" stroke="none" 
	d="
M411.000000,276.531342 
	C405.896515,276.984711 400.793060,276.969421 395.224609,276.540344 
	C396.364075,271.426758 397.968536,266.727020 399.781189,261.947021 
	C400.060120,261.265198 400.130859,260.663574 400.183838,259.684265 
	C400.649811,257.880188 401.133484,256.453827 401.822449,254.941101 
	C402.067810,254.251968 402.107910,253.649231 402.113586,252.694550 
	C402.234802,251.903671 402.390442,251.464752 402.759338,250.941528 
	C403.005432,250.245941 403.038269,249.634644 403.043213,248.670624 
	C403.183624,247.883011 403.351959,247.448090 403.930756,247.012390 
	C406.560822,247.007736 408.780426,247.003876 411.000000,247.000000 
	C411.000000,256.687561 411.000000,266.375122 411.000000,276.531342 
z"/>
<path fill="#F7AB87" opacity="1.000000" stroke="none" 
	d="
M92.468658,409.000000 
	C91.973984,396.991486 91.973984,396.991394 104.051231,396.991486 
	C107.523941,396.991516 111.018372,397.236908 114.463928,396.931213 
	C118.892876,396.538208 120.542015,398.320862 120.041817,402.623199 
	C119.833145,404.418060 120.005730,406.257263 120.002480,408.538147 
	C110.979103,409.000000 101.958214,409.000000 92.468658,409.000000 
z"/>
<path fill="#F7AB87" opacity="1.000000" stroke="none" 
	d="
M272.468658,409.000000 
	C271.989258,396.996338 271.989258,396.996277 284.049316,396.996368 
	C287.520844,396.996399 291.013947,397.240967 294.458466,396.936035 
	C298.883179,396.544373 300.536987,398.321899 300.036591,402.625122 
	C299.827942,404.419312 300.001648,406.257935 300.000732,408.538177 
	C290.979095,409.000000 281.958221,409.000000 272.468658,409.000000 
z"/>
<path fill="#F7AB87" opacity="1.000000" stroke="none" 
	d="
M332.468658,409.000000 
	C331.985931,396.996338 331.985931,396.996277 344.048645,396.996368 
	C347.520142,396.996399 351.013245,397.240753 354.457764,396.936127 
	C358.881683,396.544952 360.537109,398.321381 360.036713,402.625153 
	C359.828094,404.419342 360.001740,406.257935 360.000793,408.538177 
	C350.979095,409.000000 341.958221,409.000000 332.468658,409.000000 
z"/>
<path fill="#F7AB87" opacity="1.000000" stroke="none" 
	d="
M362.468658,409.000000 
	C361.981720,396.996338 361.981720,396.996277 374.047607,396.996368 
	C377.519043,396.996399 381.012024,397.240631 384.456512,396.936127 
	C388.880219,396.545044 390.535767,398.321930 390.036346,402.625244 
	C389.828125,404.419464 390.001526,406.257996 390.000702,408.538177 
	C380.979095,409.000000 371.958221,409.000000 362.468658,409.000000 
z"/>
<path fill="#F7AB87" opacity="1.000000" stroke="none" 
	d="
M62.468658,409.000000 
	C61.973160,396.991486 61.973160,396.991394 74.051796,396.991516 
	C77.524490,396.991516 81.018898,397.236877 84.464447,396.931213 
	C88.893204,396.538361 90.542648,398.320892 90.042557,402.623199 
	C89.833916,404.418091 90.006302,406.257263 90.002716,408.538147 
	C80.979103,409.000000 71.958206,409.000000 62.468658,409.000000 
z"/>
<path fill="#F7AB87" opacity="1.000000" stroke="none" 
	d="
M302.468658,409.000000 
	C301.985992,396.996338 301.985992,396.996277 314.048950,396.996368 
	C317.520508,396.996399 321.013641,397.240967 324.458191,396.936127 
	C328.882629,396.544617 330.537109,398.321564 330.036591,402.625092 
	C329.827942,404.419250 330.001678,406.257935 330.000763,408.538177 
	C320.979095,409.000000 311.958221,409.000000 302.468658,409.000000 
z"/>
<path fill="#F7AB87" opacity="1.000000" stroke="none" 
	d="
M32.468658,409.000000 
	C31.973555,396.991455 31.973555,396.991394 44.052555,396.991516 
	C47.525223,396.991547 51.019604,397.236786 54.465134,396.931152 
	C58.893890,396.538300 60.543266,398.321106 60.043476,402.623199 
	C59.834953,404.418121 60.007019,406.257233 60.003021,408.538147 
	C50.979103,409.000000 41.958210,409.000000 32.468658,409.000000 
z"/>
<path fill="#F6AB87" opacity="1.000000" stroke="none" 
	d="
M149.994217,399.103241 
	C149.995102,402.101410 149.995987,405.099548 149.998444,408.548859 
	C140.979111,409.000000 131.958206,409.000000 122.468658,409.000000 
	C121.971909,397.025757 121.972038,397.046082 133.960388,396.968872 
	C135.748566,396.957367 137.534821,396.651276 140.037506,396.250824 
	C143.833435,397.047882 146.913818,398.075562 149.994217,399.103241 
z"/>
<path fill="#F4A985" opacity="1.000000" stroke="none" 
	d="
M1.000000,155.000000 
	C1.000000,145.979111 1.000000,136.958206 1.466225,127.473869 
	C6.896969,127.027763 11.861488,127.045105 16.689449,127.361130 
	C16.407368,128.496002 16.261843,129.332184 16.080107,130.466797 
	C15.769417,131.495850 15.494939,132.226486 14.944812,133.202606 
	C13.919027,136.145569 13.168892,138.843079 12.367456,141.886810 
	C12.005414,143.109970 11.694673,143.986908 11.169788,144.949234 
	C10.898014,145.677063 10.840382,146.319489 10.761583,147.294128 
	C10.575817,148.035507 10.411217,148.444672 10.001577,149.010742 
	C9.447578,150.768692 9.138618,152.369720 8.816401,154.297424 
	C8.642515,155.026138 8.481884,155.428177 8.097772,155.835922 
	C7.587576,155.923492 7.298493,155.995926 6.707986,155.820435 
	C4.605955,155.387955 2.802977,155.193985 1.000000,155.000000 
z"/>
<path fill="#F2A784" opacity="1.000000" stroke="none" 
	d="
M1.000000,275.000000 
	C1.000000,265.979095 1.000000,256.958221 1.419262,247.472046 
	C3.236135,246.996918 4.633745,246.987061 6.218191,247.024567 
	C6.649169,247.171219 6.902325,247.207306 7.346664,247.544373 
	C8.180453,250.751297 8.832069,253.594025 9.374587,256.730957 
	C9.588575,257.730682 9.911662,258.436157 10.419666,259.497192 
	C12.135241,264.887939 13.665897,269.923157 14.719627,274.966614 
	C9.828466,274.983215 5.414233,274.991608 1.000000,275.000000 
z"/>
<path fill="#F7AB87" opacity="1.000000" stroke="none" 
	d="
M392.469360,409.000000 
	C391.977844,396.996338 391.977844,396.996277 404.098633,396.996399 
	C406.086823,396.996399 408.074982,396.997223 410.531586,396.998840 
	C411.000000,400.942444 411.000000,404.884918 411.000000,409.000000 
	C404.980347,409.000000 398.959564,409.000000 392.469360,409.000000 
z"/>
<path fill="#F6AA86" opacity="1.000000" stroke="none" 
	d="
M122.052574,7.997651 
	C122.034538,5.956696 122.016502,3.915741 121.999237,1.437393 
	C131.020889,1.000000 140.041794,1.000000 149.532333,1.418742 
	C149.995590,3.236565 149.989197,4.635647 149.846039,6.216641 
	C149.508789,6.629800 149.278198,6.825590 148.730377,7.036296 
	C147.965271,7.396027 147.487305,7.705383 146.673584,8.009829 
	C145.890152,8.002766 145.442490,8.000613 144.526520,7.998672 
	C136.723007,7.998474 129.387787,7.998062 122.052574,7.997651 
z"/>
<path fill="#EDA380" opacity="1.000000" stroke="none" 
	d="
M149.017517,6.985922 
	C149.278198,6.825590 149.508789,6.629800 150.187134,6.086525 
	C151.109985,4.182999 151.554993,2.591500 152.000000,1.000001 
	C165.354233,1.000000 178.708450,1.000000 192.503113,1.214012 
	C192.943542,1.428025 192.962814,1.859327 192.563004,1.955510 
	C177.786407,4.481970 163.409622,6.912247 149.027557,9.048138 
	C149.020691,8.164475 149.019104,7.575199 149.017517,6.985922 
z"/>
<path fill="#F6AA86" opacity="1.000000" stroke="none" 
	d="
M1.895933,6.972699 
	C1.827444,7.020027 1.413729,7.009735 1.206865,7.004868 
	C1.000000,5.611111 1.000000,4.222222 1.202163,2.288988 
	C1.641777,1.527542 1.840335,1.279328 2.000000,1.000000 
	C11.020896,1.000000 20.041792,1.000000 29.531343,1.000000 
	C30.559511,5.030327 28.629623,6.179310 24.824879,6.058665 
	C17.854452,5.837639 10.871844,6.000796 3.259425,6.122029 
	C2.416178,6.407067 2.241865,6.603970 2.101596,6.831006 
	C2.101596,6.831006 1.964421,6.925372 1.895933,6.972699 
z"/>
<path fill="#F6AA86" opacity="1.000000" stroke="none" 
	d="
M119.531342,1.000000 
	C120.399498,4.474266 119.227562,6.200738 115.355698,6.056203 
	C109.076439,5.821800 102.780334,5.905321 96.494804,6.029556 
	C93.458870,6.089561 91.656967,5.220358 92.001289,1.421267 
	C101.020897,1.000000 110.041786,1.000000 119.531342,1.000000 
z"/>
<path fill="#F6AA86" opacity="1.000000" stroke="none" 
	d="
M299.531342,1.000000 
	C300.396240,4.473280 299.223602,6.200006 295.352814,6.055520 
	C289.074036,5.821149 282.778442,5.904452 276.493408,6.029021 
	C273.457306,6.089197 271.656158,5.220392 272.001404,1.421312 
	C281.020905,1.000000 290.041779,1.000000 299.531342,1.000000 
z"/>
<path fill="#F6AA86" opacity="1.000000" stroke="none" 
	d="
M59.531342,1.000000 
	C60.421104,4.535667 59.163357,6.205746 55.297241,6.056649 
	C49.141121,5.819237 42.968800,5.946848 36.804211,6.008353 
	C33.869293,6.037635 31.878595,5.189126 32.005318,1.405881 
	C41.020897,1.000000 50.041790,1.000000 59.531342,1.000000 
z"/>
<path fill="#F6AA86" opacity="1.000000" stroke="none" 
	d="
M329.531342,1.000000 
	C330.322388,4.644101 328.641907,6.109561 325.015869,6.029320 
	C318.692932,5.889399 312.363129,5.906007 306.039307,6.023598 
	C302.999481,6.080122 301.737976,4.791887 302.001221,1.421320 
	C311.020905,1.000000 320.041779,1.000000 329.531342,1.000000 
z"/>
<path fill="#F6AA86" opacity="1.000000" stroke="none" 
	d="
M359.531342,1.000000 
	C360.321472,4.643574 358.641571,6.109671 355.015350,6.029364 
	C348.692505,5.889337 342.362823,5.906037 336.039093,6.023577 
	C332.999359,6.080076 331.737793,4.791906 332.001160,1.421326 
	C341.020905,1.000000 350.041779,1.000000 359.531342,1.000000 
z"/>
<path fill="#F6AA86" opacity="1.000000" stroke="none" 
	d="
M89.531342,1.000000 
	C90.419922,4.534966 89.163498,6.206103 85.296654,6.056750 
	C79.140343,5.818968 72.967766,5.947035 66.802948,6.008224 
	C63.868793,6.037348 61.875942,5.191288 62.005226,1.405960 
	C71.020897,1.000000 80.041786,1.000000 89.531342,1.000000 
z"/>
<path fill="#F6AA86" opacity="1.000000" stroke="none" 
	d="
M389.531342,1.000000 
	C390.317841,4.641489 388.639526,6.109776 385.013214,6.029402 
	C378.690857,5.889273 372.361633,5.906206 366.038391,6.023483 
	C362.999268,6.079850 361.737091,4.792039 362.000977,1.421339 
	C371.020905,1.000000 380.041779,1.000000 389.531342,1.000000 
z"/>
<path fill="#F4A985" opacity="1.000000" stroke="none" 
	d="
M269.531342,1.000000 
	C270.548126,4.997495 268.664886,6.223911 264.849915,6.074712 
	C261.578827,5.946782 258.281342,6.494553 254.409241,6.667531 
	C253.240265,6.636156 252.657593,6.680750 251.719269,6.743829 
	C250.926804,6.590747 250.490005,6.419180 249.959290,6.052335 
	C249.263062,5.830925 248.660767,5.804796 247.678314,5.800045 
	C246.544281,5.715256 245.790390,5.609086 244.906525,5.214660 
	C243.851028,3.617604 242.925507,2.308803 242.000000,1.000001 
	C251.020889,1.000000 260.041779,1.000000 269.531342,1.000000 
z"/>
<path fill="#F4A985" opacity="1.000000" stroke="none" 
	d="
M1.000000,185.000000 
	C1.000000,175.979111 1.000000,166.958206 1.427415,157.474548 
	C3.564973,157.011215 5.275115,157.010635 6.976424,157.364883 
	C6.900672,159.466034 6.833751,161.212357 6.768753,163.287079 
	C6.646367,164.032867 6.522058,164.450241 6.158289,164.993820 
	C5.887568,166.069611 5.856307,167.019196 5.834781,168.367554 
	C5.602385,169.795425 5.360253,170.824524 4.923081,171.960388 
	C4.745493,172.698837 4.762947,173.330551 4.807545,174.324631 
	C4.604146,176.115616 4.373601,177.544220 3.908041,179.149506 
	C3.707534,180.204224 3.742042,181.082260 3.804476,182.338440 
	C3.719432,183.463272 3.606462,184.209946 3.181563,184.946655 
	C2.246422,184.957794 1.623211,184.978897 1.000000,185.000000 
z"/>
<path fill="#E29B7B" opacity="1.000000" stroke="none" 
	d="
M6.031357,246.977203 
	C4.633745,246.987061 3.236135,246.996918 1.419262,247.003387 
	C1.000000,238.312439 1.000000,229.624863 1.379577,220.458862 
	C2.265074,219.999023 2.770993,220.017593 3.390775,220.395233 
	C3.619933,222.515945 3.735229,224.277603 3.667360,226.270142 
	C3.730447,227.351730 3.976697,228.202393 4.350520,229.391418 
	C4.601541,231.166046 4.724992,232.602325 4.689778,234.223969 
	C4.736600,234.951111 4.942087,235.492889 5.290112,236.346848 
	C5.575493,237.784546 5.718335,238.910080 5.704197,240.226959 
	C5.771758,240.962448 5.996299,241.506607 6.349857,242.312744 
	C6.525856,243.149979 6.572839,243.725220 6.454643,244.730499 
	C6.203428,245.766083 6.117393,246.371628 6.031357,246.977203 
z"/>
<path fill="#F6AA86" opacity="1.000000" stroke="none" 
	d="
M411.000000,5.500038 
	C406.010437,5.995883 401.018616,5.898749 396.032196,6.022191 
	C392.993256,6.097423 391.736938,4.787446 392.000641,1.421338 
	C398.198608,1.000000 404.397186,1.000000 411.000000,1.000000 
	C411.000000,2.313518 411.000000,3.656796 411.000000,5.500038 
z"/>
<path fill="#E29B7B" opacity="1.000000" stroke="none" 
	d="
M241.531357,1.000001 
	C242.925507,2.308803 243.851028,3.617604 244.513519,5.155965 
	C235.177216,4.206693 226.103943,3.027861 217.035965,1.636303 
	C217.041275,1.423578 217.000000,1.000000 217.000000,1.000000 
	C225.020905,1.000000 233.041809,1.000000 241.531357,1.000001 
z"/>
<path fill="#E29B7B" opacity="1.000000" stroke="none" 
	d="
M1.000000,305.333313 
	C8.059154,305.003021 15.119576,305.080353 22.176615,304.959656 
	C24.069817,304.927307 25.952707,304.291748 28.422514,303.808716 
	C29.449060,304.694885 29.893427,305.705414 30.337791,306.715942 
	C30.337790,306.715942 30.083193,306.947083 29.957184,307.066528 
	C20.533203,307.128052 11.235231,307.070068 1.468629,307.006042 
	C1.000000,306.555542 1.000000,306.111115 1.000000,305.333313 
z"/>
<path fill="#E29B7B" opacity="1.000000" stroke="none" 
	d="
M0.999998,215.000000 
	C1.000000,206.979095 1.000000,198.958191 1.232594,190.737762 
	C1.907517,192.352921 2.349848,194.167633 2.861685,196.445770 
	C2.880599,201.943878 2.830006,206.978516 2.588075,212.237961 
	C1.931158,213.308502 1.465577,214.154251 0.999998,215.000000 
z"/>
<path fill="#E29B7B" opacity="1.000000" stroke="none" 
	d="
M16.826008,127.062447 
	C11.861488,127.045105 6.896969,127.027763 1.466225,127.005211 
	C1.000000,126.555557 1.000000,126.111107 1.000000,125.333328 
	C6.471331,125.033020 11.942661,125.066040 17.922089,125.367126 
	C18.430187,125.635193 18.171854,126.023453 17.913315,126.146820 
	C17.378519,126.534271 17.102262,126.798363 16.826008,127.062447 
z"/>
<path fill="#E29B7B" opacity="1.000000" stroke="none" 
	d="
M1.000000,275.333313 
	C5.414233,274.991608 9.828466,274.983215 14.939137,275.156189 
	C15.760090,275.890808 15.884607,276.444092 16.009125,276.997375 
	C11.316852,277.000702 6.624580,277.003998 1.466155,277.003662 
	C1.000000,276.555542 1.000000,276.111115 1.000000,275.333313 
z"/>
<path fill="#C98667" opacity="1.000000" stroke="none" 
	d="
M2.792177,195.982330 
	C2.349848,194.167633 1.907517,192.352921 1.232594,190.269104 
	C1.000000,188.611115 1.000000,187.222214 1.000000,185.416656 
	C1.623211,184.978897 2.246422,184.957794 3.293388,185.385864 
	C3.408821,189.217484 3.100499,192.599899 2.792177,195.982330 
z"/>
<path fill="#C98667" opacity="1.000000" stroke="none" 
	d="
M216.531372,1.000000 
	C217.000000,1.000000 217.041275,1.423578 216.571991,1.722346 
	C208.389404,1.967185 200.676117,1.913256 192.962814,1.859327 
	C192.962814,1.859327 192.943542,1.428025 192.971771,1.214012 
	C200.687576,1.000000 208.375168,1.000000 216.531372,1.000000 
z"/>
<path fill="#C98667" opacity="1.000000" stroke="none" 
	d="
M0.999998,215.333328 
	C1.465577,214.154251 1.931158,213.308502 2.757195,212.566742 
	C3.170739,215.125885 3.223826,217.581024 3.276913,220.036179 
	C2.770993,220.017593 2.265074,219.999023 1.379577,219.990219 
	C1.000000,219.555557 1.000000,219.111099 1.091500,218.214630 
	C1.327439,217.491745 1.266439,217.237534 1.000000,217.000000 
	C1.000000,216.555557 1.000000,216.111099 0.999998,215.333328 
z"/>
<path fill="#E29B7B" opacity="1.000000" stroke="none" 
	d="
M411.000000,246.666687 
	C408.780426,247.003876 406.560822,247.007736 403.890686,246.699738 
	C403.682617,245.601578 403.925110,244.815262 404.167603,244.028961 
	C406.180298,244.355392 408.192963,244.681824 410.602844,245.004120 
	C411.000000,245.444443 411.000000,245.888901 411.000000,246.666687 
z"/>
<path fill="#E29B7B" opacity="1.000000" stroke="none" 
	d="
M6.985256,157.010056 
	C5.275115,157.010635 3.564973,157.011215 1.427415,157.005890 
	C1.000000,156.555557 1.000000,156.111099 1.000000,155.333328 
	C2.802977,155.193985 4.605955,155.387955 6.708789,156.058044 
	C7.008646,156.534164 6.985256,157.010056 6.985256,157.010056 
z"/>
<path fill="#E59E7D" opacity="1.000000" stroke="none" 
	d="
M151.666672,1.000001 
	C151.554993,2.591500 151.109985,4.182999 150.323883,5.904613 
	C149.989197,4.635647 149.995590,3.236565 150.000992,1.418742 
	C150.444443,1.000000 150.888901,1.000000 151.666672,1.000001 
z"/>
<path fill="#E29B7B" opacity="1.000000" stroke="none" 
	d="
M1.000000,65.375000 
	C1.201422,65.946861 1.402844,66.893723 1.302133,67.920288 
	C1.000000,67.250000 1.000000,66.500000 1.000000,65.375000 
z"/>
<path fill="#E29B7B" opacity="1.000000" stroke="none" 
	d="
M2.971099,96.708351 
	C2.600649,97.012657 2.142894,97.016655 1.342569,97.010330 
	C1.000000,96.555557 1.000000,96.111107 0.999999,95.333336 
	C1.627929,95.469353 2.255862,95.938698 2.971099,96.708351 
z"/>
<path fill="#E29B7B" opacity="1.000000" stroke="none" 
	d="
M1.000000,408.500000 
	C1.297227,408.136536 1.541449,408.337494 1.866334,408.801453 
	C1.666667,409.000000 1.333333,409.000000 1.000000,408.500000 
z"/>
<path fill="#E29B7B" opacity="1.000000" stroke="none" 
	d="
M1.000000,217.250000 
	C1.266439,217.237534 1.327439,217.491745 1.091500,217.881317 
	C1.000000,218.000000 1.000000,217.500000 1.000000,217.250000 
z"/>
<path fill="#E29B7B" opacity="1.000000" stroke="none" 
	d="
M1.500000,1.000000 
	C1.840335,1.279328 1.641777,1.527542 1.202163,1.872321 
	C1.000000,1.666667 1.000000,1.333333 1.500000,1.000000 
z"/>
<path fill="#E69E7D" opacity="1.000000" stroke="none" 
	d="
M30.007496,95.003349 
	C30.004570,86.315109 30.001646,77.626869 30.001661,68.469116 
	C30.004602,67.999611 30.015614,67.996460 30.345781,67.997437 
	C31.116440,67.998634 31.556931,67.998863 31.996815,68.467834 
	C32.006969,77.617508 32.017731,86.298431 31.691614,94.983932 
	C30.905659,94.993454 30.456577,94.998398 30.007496,95.003349 
z"/>
<path fill="#EDA380" opacity="1.000000" stroke="none" 
	d="
M29.583675,64.995735 
	C29.994747,65.160706 29.995552,65.328331 29.996838,66.080399 
	C30.003416,67.108719 30.009514,67.552589 30.015614,67.996460 
	C30.015614,67.996460 30.004602,67.999611 29.999157,68.000565 
	C28.115356,67.762901 26.237001,67.524277 24.358646,67.285660 
	C24.366953,66.753166 24.375257,66.220680 24.383564,65.688194 
	C25.980181,65.458260 27.576796,65.228333 29.583675,64.995735 
z"/>
<path fill="#E29B7B" opacity="1.000000" stroke="none" 
	d="
M29.760426,95.006378 
	C30.456577,94.998398 30.905659,94.993454 32.066105,94.999062 
	C33.276775,95.043274 33.776081,95.076942 34.207382,95.454437 
	C33.123386,96.997299 32.107395,98.196320 31.091406,99.395340 
	C30.410967,98.171478 29.730528,96.947624 29.034636,95.366043 
	C29.019182,95.008324 29.513357,95.009415 29.760426,95.006378 
z"/>
<path fill="#3F1705" opacity="1.000000" stroke="none" 
	d="
M30.897110,99.659256 
	C32.107395,98.196320 33.123386,96.997299 34.473518,95.262070 
	C41.214798,86.172684 47.621937,77.619507 54.321342,68.937424 
	C55.686367,67.517570 56.759121,66.226639 58.105030,64.815430 
	C58.989609,63.936165 59.601032,63.177162 60.212456,62.418159 
	C61.343761,61.455231 62.475067,60.492298 64.023216,59.084091 
	C72.010284,52.210487 79.580505,45.782154 87.150726,39.353821 
	C88.714348,38.314789 90.277969,37.275761 92.368881,35.907120 
	C101.925995,30.339365 110.955803,25.101227 119.985611,19.863089 
	C121.060173,19.576769 122.134735,19.290449 123.802246,18.716106 
	C127.257645,17.154095 130.120087,15.880110 133.343170,14.586951 
	C136.390274,13.479656 139.076767,12.391536 142.103546,11.349291 
	C143.281158,11.049625 144.118500,10.704082 145.221817,10.424829 
	C145.979370,10.276300 146.470932,10.061481 147.328171,9.869055 
	C148.140182,9.708477 148.586502,9.525503 149.032837,9.342526 
	C163.409622,6.912247 177.786407,4.481970 192.563004,1.955510 
	C200.676117,1.913256 208.389404,1.967185 216.566681,1.935072 
	C226.103943,3.027861 235.177216,4.206693 244.643509,5.444220 
	C245.790390,5.609086 246.544281,5.715256 247.884583,5.980412 
	C248.998413,6.175471 249.525803,6.211544 250.053192,6.247615 
	C250.490005,6.419180 250.926804,6.590747 251.912109,6.941671 
	C252.990509,7.182638 253.520401,7.244247 254.050308,7.305859 
	C255.478195,7.783184 256.906097,8.260508 259.020233,8.918364 
	C263.481171,10.114313 267.255829,11.129732 271.030518,12.145149 
	C271.030518,12.145149 271.379089,12.457932 271.810303,12.641662 
	C272.933563,12.987972 273.625671,13.150553 274.529846,13.533243 
	C275.509094,13.962452 276.276245,14.171550 277.335815,14.615520 
	C280.544617,15.986938 283.460907,17.123484 286.572144,18.497932 
	C287.524567,18.992170 288.282104,19.248508 289.335266,19.731030 
	C293.036621,21.525766 296.442352,23.094318 299.848083,24.662868 
	C300.286194,24.974167 300.724304,25.285471 301.642822,25.851151 
	C307.735199,29.437033 313.347137,32.768539 318.959076,36.100052 
	C323.115509,39.250668 327.271973,42.401283 331.925293,45.936749 
	C339.246399,52.560921 346.070648,58.800240 352.894897,65.039558 
	C355.715271,68.296654 358.535645,71.553749 361.757324,75.282471 
	C366.907532,82.245018 371.656494,88.735947 376.405457,95.226875 
	C377.047577,96.438148 377.689728,97.649406 378.736267,99.387985 
	C381.961731,104.998703 384.782837,110.082100 387.603943,115.165497 
	C388.029663,116.261452 388.455383,117.357399 389.123810,119.026474 
	C389.817993,120.264374 390.269470,120.929153 390.720947,121.593933 
	C391.188019,122.866402 391.655060,124.138870 392.306244,125.941666 
	C392.820679,127.117340 393.150940,127.762680 393.483429,128.429199 
	C393.485657,128.450348 393.527222,128.453369 393.527222,128.453369 
	C393.708008,129.103043 393.888763,129.752716 394.248352,130.985580 
	C394.833649,132.273224 395.240143,132.977676 395.646606,133.682144 
	C396.841644,137.541824 398.036652,141.401520 399.357971,145.870697 
	C399.728394,146.965729 399.972565,147.451248 400.216736,147.936768 
	C400.549011,149.390152 400.881287,150.843536 401.351135,152.983505 
	C402.069153,155.754440 402.649567,157.838791 403.229980,159.923126 
	C403.261963,160.398727 403.293945,160.874313 403.430054,161.920166 
	C403.737823,162.977356 403.941467,163.464325 404.145142,163.951279 
	C404.201202,164.726517 404.257263,165.501770 404.400452,166.926392 
	C404.723785,168.361877 404.960052,169.147964 405.196289,169.934052 
	C405.256744,170.715347 405.317230,171.496643 405.466187,172.923309 
	C405.756897,174.360687 405.959137,175.152710 406.161377,175.944733 
	C406.206726,177.036697 406.252075,178.128677 406.362854,179.929199 
	C406.669525,181.740891 406.910767,182.844055 407.151978,183.947205 
	C407.238312,186.344177 407.324707,188.741135 407.452057,192.013016 
	C407.586731,200.931854 407.680420,208.975800 407.774109,217.019730 
	C407.511414,219.069305 407.248718,221.118896 406.901123,223.873322 
	C406.803101,225.393478 406.789948,226.208771 406.776825,227.024078 
	C406.527496,228.416595 406.278198,229.809128 405.921173,231.888000 
	C405.800995,233.391098 405.788544,234.207840 405.776123,235.024567 
	C405.558105,235.776245 405.340057,236.527924 404.993591,237.931915 
	C404.813324,239.398148 404.761475,240.212051 404.709656,241.025970 
	C404.497742,241.767960 404.285858,242.509949 404.120789,243.640457 
	C403.925110,244.815262 403.682617,245.601578 403.480194,246.700531 
	C403.351959,247.448090 403.183624,247.883011 402.856201,248.873535 
	C402.646729,249.961365 402.596405,250.493591 402.546082,251.025818 
	C402.390442,251.464752 402.234802,251.903671 401.931213,252.897247 
	C401.727905,253.977081 401.672516,254.502289 401.617157,255.027496 
	C401.133484,256.453827 400.649811,257.880188 399.993744,259.881531 
	C399.738586,260.980133 399.655792,261.503693 399.572998,262.027283 
	C397.968536,266.727020 396.364075,271.426758 394.741028,276.513672 
	C394.364349,277.520905 394.006317,278.140991 393.412445,279.242249 
	C392.955414,280.498993 392.734192,281.274567 392.512970,282.050171 
	C391.950409,283.294220 391.387817,284.538300 390.543823,286.296997 
	C389.977875,287.545868 389.693298,288.280151 389.408691,289.014435 
	C388.850220,290.060150 388.291748,291.105865 387.455750,292.739136 
	C385.221802,297.165039 383.265381,301.003357 381.308929,304.841705 
	C380.987183,305.272919 380.665405,305.704102 380.077606,306.594971 
	C373.846283,315.642914 367.880981,324.231171 361.915680,332.819458 
	C360.948425,333.867676 359.981140,334.915894 358.622375,336.413208 
	C349.501007,345.289734 340.771149,353.717133 332.041290,362.144531 
	C330.111938,363.563965 328.182617,364.983398 325.754700,366.778748 
	C317.508331,372.136017 309.760590,377.117371 302.012817,382.098694 
	C301.042511,382.502533 300.072174,382.906342 298.555420,383.613525 
	C290.671448,387.275238 283.333923,390.633575 275.996399,393.991882 
	C273.678955,394.733490 271.361511,395.475098 268.756561,396.447266 
	C251.959656,401.421539 235.246826,404.908173 218.030243,405.975586 
	C195.205673,407.390625 172.843750,404.875092 150.389969,399.099548 
	C146.913818,398.075562 143.833435,397.047882 140.375931,396.013367 
	C138.269440,395.281799 136.540054,394.557037 134.190460,393.592896 
	C129.724457,391.866150 125.878670,390.378784 122.032883,388.891418 
	C121.559517,388.575317 121.086151,388.259247 120.086388,387.683502 
	C110.755463,382.586731 101.950935,377.749603 93.146408,372.912506 
	C92.325630,372.268280 91.504860,371.624023 90.201675,370.638275 
	C87.957680,369.119354 86.196114,367.941956 84.434525,366.764557 
	C83.491867,365.908325 82.549217,365.052094 81.111298,363.832062 
	C75.225975,358.910950 69.835907,354.353607 64.445847,349.796295 
	C63.225239,348.507874 62.004623,347.219452 60.360489,345.494263 
	C57.340290,342.351715 54.743614,339.645905 52.146942,336.940094 
	C51.408928,335.892578 50.670918,334.845093 49.515671,333.338562 
	C44.143097,326.220703 39.187763,319.561798 34.232430,312.902924 
	C33.110504,310.973419 31.988577,309.043945 30.602222,306.915192 
	C29.893427,305.705414 29.449060,304.694885 28.743587,303.473755 
	C24.488400,294.674286 20.494318,286.085419 16.254681,277.246948 
	C15.884607,276.444092 15.760090,275.890808 15.416063,275.147949 
	C13.665897,269.923157 12.135241,264.887939 10.501374,259.210876 
	C10.093340,257.858307 9.788515,257.147522 9.483688,256.436737 
	C8.832069,253.594025 8.180453,250.751297 7.435233,247.252014 
	C7.101027,245.830444 6.860425,245.065460 6.619823,244.300476 
	C6.572839,243.725220 6.525856,243.149979 6.456282,242.114792 
	C6.242855,241.115112 6.052017,240.575363 5.861178,240.035614 
	C5.718335,238.910080 5.575493,237.784546 5.399904,236.154449 
	C5.194252,235.112808 5.021346,234.575714 4.848441,234.038620 
	C4.724992,232.602325 4.601541,231.166046 4.472180,229.151077 
	C4.261021,227.728012 4.055772,226.883636 3.850523,226.039246 
	C3.735229,224.277603 3.619933,222.515945 3.390775,220.395233 
	C3.223826,217.581024 3.170739,215.125885 2.948532,212.341949 
	C2.830006,206.978516 2.880599,201.943878 2.861685,196.445770 
	C3.100499,192.599899 3.408821,189.217484 3.605318,185.395844 
	C3.606462,184.209946 3.719432,183.463272 3.994031,182.141357 
	C4.151460,180.701706 4.147258,179.837265 4.143057,178.972824 
	C4.373601,177.544220 4.604146,176.115616 4.996124,174.104111 
	C5.144413,172.965347 5.131268,172.409485 5.118122,171.853622 
	C5.360253,170.824524 5.602385,169.795425 6.045742,168.109192 
	C6.297228,166.590576 6.347489,165.729111 6.397749,164.867630 
	C6.522058,164.450241 6.646367,164.032867 7.000370,163.005707 
	C7.593795,160.207367 7.957525,158.018799 8.321255,155.830231 
	C8.481884,155.428177 8.642515,155.026138 9.049822,154.048447 
	C9.613203,151.933151 9.929908,150.393494 10.246614,148.853836 
	C10.411217,148.444672 10.575817,148.035507 10.976154,147.090637 
	C11.269239,145.991226 11.326587,145.427521 11.383932,144.863831 
	C11.694673,143.986908 12.005414,143.109970 12.616596,141.650436 
	C13.684844,138.364258 14.452652,135.660706 15.220461,132.957138 
	C15.494939,132.226486 15.769417,131.495850 16.282589,130.188477 
	C17.071474,128.415649 17.621662,127.219551 18.171852,126.023453 
	C18.171854,126.023453 18.430187,125.635193 18.413380,125.402634 
	C19.354540,123.227661 20.312506,121.285248 21.562359,118.798149 
	C22.452675,116.823212 23.051105,115.392975 23.649536,113.962730 
	C26.000629,109.282883 28.351723,104.603027 30.897110,99.659256 
M206.361877,149.282516 
	C182.072662,149.694885 165.378342,166.459946 165.092316,190.744125 
	C165.017731,197.075974 165.083023,203.410812 164.920380,209.740067 
	C164.338135,232.398270 153.998718,249.585327 134.087494,259.879395 
	C114.203354,270.159485 94.232117,268.709900 75.374519,256.134430 
	C73.186440,254.675262 70.890701,253.377518 68.644875,252.004944 
	C69.821175,255.537018 71.654663,258.219879 73.588486,260.828339 
	C94.707390,289.314819 122.849792,304.478821 158.449280,304.948212 
	C180.952423,305.244934 198.565735,288.037292 199.152206,265.553680 
	C199.412842,255.561859 199.218002,245.558136 199.229126,235.559814 
	C199.231110,233.773071 199.229416,231.986343 199.229416,229.938843 
	C203.451523,229.938843 207.033478,229.938843 211.082840,229.938843 
	C211.172379,231.856354 211.321350,233.638443 211.327972,235.421082 
	C211.365768,245.585938 211.137634,255.757706 211.433319,265.914490 
	C212.051056,287.134644 229.187073,304.859711 249.432297,304.953033 
	C287.663635,305.129333 317.422241,288.929901 339.152679,257.666504 
	C340.231812,256.113953 341.078522,254.399811 342.033478,252.760910 
	C341.705902,252.462555 341.378326,252.164185 341.050781,251.865814 
	C339.811127,252.774826 338.562073,253.671310 337.333191,254.594650 
	C301.700897,281.367340 251.286652,260.069397 246.047897,215.846054 
	C245.092834,207.783936 245.551559,199.548370 245.454056,191.391724 
	C245.172455,167.836563 230.592148,151.761719 206.361877,149.282516 
M54.406715,147.502121 
	C54.407070,165.495773 53.746262,183.523010 54.657318,201.470428 
	C55.198368,212.128983 56.190258,223.591766 60.537296,233.059357 
	C69.842316,253.325150 87.266075,263.300476 109.644669,262.675629 
	C133.275543,262.015808 149.091568,249.439621 158.185608,227.978058 
	C158.782990,226.568283 158.964264,224.982193 159.449539,223.034943 
	C143.387283,229.528717 134.113998,219.501862 134.581787,205.566330 
	C135.375092,181.934616 134.817978,158.256943 134.788971,134.598618 
	C134.779282,126.695656 132.633240,124.589561 124.621498,124.541733 
	C116.457985,124.492996 108.293968,124.525719 100.130173,124.528625 
	C87.801208,124.533020 75.471138,124.446251 63.143753,124.589401 
	C56.736080,124.663803 54.511269,127.100952 54.423111,133.508392 
	C54.363525,137.839401 54.408703,142.171860 54.406715,147.502121 
M311.415985,262.090454 
	C313.679169,261.552002 316.006012,261.198792 318.195801,260.446625 
	C341.986633,252.274490 355.234436,235.508331 355.885620,206.441086 
	C356.433716,181.977234 356.138489,157.493637 356.130280,133.018814 
	C356.128326,127.214897 353.764679,124.682793 347.939636,124.648972 
	C326.628876,124.525261 305.316589,124.524757 284.005829,124.646629 
	C278.145905,124.680130 275.941833,127.144264 275.862457,133.026917 
	C275.770386,139.852066 275.833466,146.679337 275.832489,153.505676 
	C275.829956,171.653778 275.887451,189.802155 275.808838,207.949921 
	C275.748810,221.812729 265.722107,228.534180 252.920670,223.442261 
	C252.525177,223.284943 252.032684,223.371521 251.549408,223.342224 
	C254.677231,242.502472 277.522278,267.234955 311.415985,262.090454 
z"/>
<path fill="#F7AB87" opacity="1.000000" stroke="none" 
	d="
M366.271149,35.006577 
	C363.036377,35.160042 361.955383,33.791157 361.985901,31.093248 
	C362.057312,24.784800 362.076721,18.473854 361.975159,12.166207 
	C361.928162,9.245900 363.016724,7.919907 366.048462,7.968914 
	C372.688049,8.076242 379.331757,8.076238 385.971375,7.969542 
	C389.022217,7.920516 390.068176,9.293249 390.021759,12.191660 
	C389.923401,18.333317 389.896881,24.479792 390.033081,30.620026 
	C390.103668,33.802982 388.898041,35.117737 385.663330,35.047539 
	C379.357056,34.910690 373.045654,35.009995 366.271149,35.006577 
z"/>
<path fill="#F7AB87" opacity="1.000000" stroke="none" 
	d="
M332.813843,34.163254 
	C332.343109,26.392450 332.017792,18.937788 332.193420,11.494948 
	C332.221527,10.305445 334.447845,8.229062 335.737335,8.165148 
	C342.530548,7.828454 349.349670,8.051529 356.158844,7.982468 
	C358.909821,7.954567 360.042358,9.159909 360.011658,11.881176 
	C359.938568,18.358009 360.143311,24.843468 359.846436,31.307558 
	C359.788483,32.568874 357.987640,34.784843 356.960327,34.802589 
	C349.019440,34.939762 341.071075,34.644554 332.813843,34.163254 
z"/>
<path fill="#F7AB87" opacity="1.000000" stroke="none" 
	d="
M387.560730,64.895180 
	C380.302246,64.975990 373.491028,64.885658 366.686249,65.054306 
	C363.322418,65.137672 361.843140,64.003868 361.951752,60.474358 
	C362.135529,54.501511 362.087891,48.517170 361.966339,42.541142 
	C361.904572,39.502998 362.787781,37.882996 366.172211,37.956028 
	C372.811890,38.099304 379.463135,37.849258 386.094147,38.128811 
	C387.412018,38.184372 389.730865,39.841747 389.770142,40.832558 
	C390.059265,48.124222 389.937195,55.435291 389.778931,62.736660 
	C389.763550,63.447147 388.626862,64.133347 387.560730,64.895180 
z"/>
<path fill="#F6AB87" opacity="1.000000" stroke="none" 
	d="
M319.284790,35.847881 
	C313.347137,32.768539 307.735199,29.437033 301.916321,25.862932 
	C301.808441,21.130249 302.015839,16.639002 301.968079,12.150469 
	C301.936676,9.200793 303.064026,7.918441 306.081848,7.968113 
	C312.572113,8.074943 319.069183,8.131900 325.555908,7.945534 
	C329.193634,7.841020 330.127838,9.520861 330.040558,12.791399 
	C329.889648,18.447104 329.777008,24.121384 330.072021,29.765724 
	C330.296692,34.064575 328.499146,35.405113 324.505829,35.068073 
	C322.900330,34.932571 321.243805,35.401745 319.284790,35.847881 
z"/>
<path fill="#F6AA86" opacity="1.000000" stroke="none" 
	d="
M376.909760,95.176796 
	C371.656494,88.735947 366.907532,82.245018 362.057556,75.434402 
	C362.083679,67.504692 362.528320,67.058655 370.307159,67.015038 
	C375.140015,66.987938 379.978271,67.150002 384.804565,66.970665 
	C388.738312,66.824501 390.148743,68.545090 390.042358,72.349930 
	C389.874695,78.344833 389.875153,84.351364 390.045654,90.346115 
	C390.142944,93.766586 388.908966,95.261742 385.408447,95.047157 
	C382.755249,94.884514 380.079681,95.086823 376.909760,95.176796 
z"/>
<path fill="#F5A986" opacity="1.000000" stroke="none" 
	d="
M353.341064,65.024628 
	C346.070648,58.800240 339.246399,52.560921 332.241699,46.032112 
	C331.922089,37.993927 331.922089,37.991100 339.423737,37.988789 
	C344.905609,37.987103 350.388977,38.071537 355.868744,37.966133 
	C358.827789,37.909214 360.083069,39.093170 360.025787,42.087032 
	C359.917694,47.732891 359.701935,53.403111 360.092529,59.024178 
	C360.438538,64.003365 358.431946,65.691162 353.341064,65.024628 
z"/>
<path fill="#F2A784" opacity="1.000000" stroke="none" 
	d="
M299.880951,24.150072 
	C296.442352,23.094318 293.036621,21.525766 289.179626,19.451580 
	C287.944672,18.717306 287.160950,18.488667 286.377228,18.260029 
	C283.460907,17.123484 280.544617,15.986938 277.162811,14.349638 
	C275.904144,13.670300 275.110931,13.491716 274.317749,13.313133 
	C273.625671,13.150553 272.933563,12.987972 272.044464,12.639397 
	C271.677704,9.033753 273.332855,7.839762 276.686523,7.940125 
	C282.801422,8.123122 288.933777,8.181729 295.043365,7.924627 
	C299.099304,7.753947 300.295959,9.482028 300.046326,13.220523 
	C299.815277,16.680294 299.943726,20.164068 299.880951,24.150072 
z"/>
<path fill="#F5A986" opacity="1.000000" stroke="none" 
	d="
M387.998077,115.014145 
	C384.782837,110.082100 381.961731,104.998703 379.005981,99.602318 
	C381.032471,95.295181 384.751434,96.881630 387.589844,97.538910 
	C388.762085,97.810349 389.891083,101.180717 389.860229,103.122910 
	C389.797974,107.042984 388.928650,110.950249 387.998077,115.014145 
z"/>
<path fill="#E29B7B" opacity="1.000000" stroke="none" 
	d="
M270.881165,11.793341 
	C267.255829,11.129732 263.481171,10.114313 259.398071,8.901302 
	C261.152405,8.474644 263.217834,8.267311 265.277191,8.011176 
	C268.044464,7.666997 270.025421,8.529808 270.881165,11.793341 
z"/>
<path fill="#E29B7B" opacity="1.000000" stroke="none" 
	d="
M390.812012,121.169548 
	C390.269470,120.929153 389.817993,120.264374 389.362061,119.292191 
	C389.734772,118.990143 390.111938,118.995506 390.772980,119.010162 
	C391.005615,119.594696 390.954315,120.169930 390.812012,121.169548 
z"/>
<path fill="#E29B7B" opacity="1.000000" stroke="none" 
	d="
M254.085785,7.204385 
	C253.520401,7.244247 252.990509,7.182638 252.267761,6.923186 
	C252.657593,6.680750 253.240265,6.636156 254.014679,6.748536 
	C254.206406,6.905509 254.121246,7.102913 254.085785,7.204385 
z"/>
<path fill="#F7AB87" opacity="1.000000" stroke="none" 
	d="
M342.042511,395.002441 
	C330.848602,394.909668 332.076599,396.155945 332.002045,385.386078 
	C331.969849,380.739471 332.106628,376.089203 331.964233,371.446808 
	C331.868317,368.318024 332.971375,366.890594 336.263153,366.962585 
	C342.732391,367.104034 349.209015,367.101471 355.678406,366.963013 
	C358.917816,366.893707 360.105225,368.213348 360.036896,371.391449 
	C359.901398,377.694916 359.837494,384.009094 360.059174,390.307709 
	C360.194824,394.163208 358.479767,395.208008 354.978424,395.045654 
	C350.838409,394.853699 346.682617,395.001770 342.042511,395.002441 
z"/>
<path fill="#F7AB87" opacity="1.000000" stroke="none" 
	d="
M390.002441,375.085754 
	C390.000610,380.550720 389.899200,385.532501 390.033447,390.507965 
	C390.116760,393.596863 389.103424,395.106781 385.773956,395.035828 
	C379.138153,394.894318 372.496704,394.944000 365.858673,395.013916 
	C363.124664,395.042725 361.956390,393.879120 361.984650,391.143829 
	C362.054810,384.339813 362.055328,377.534149 361.988586,370.730072 
	C361.960846,367.904572 363.335907,366.948944 365.982758,366.984161 
	C371.458771,367.057037 376.936462,366.996216 382.413483,366.997650 
	C389.980438,366.999664 389.980438,367.002502 390.002441,375.085754 
z"/>
<path fill="#F7AB87" opacity="1.000000" stroke="none" 
	d="
M374.016785,336.997559 
	C378.162231,336.999237 381.820862,337.151215 385.461456,336.959595 
	C388.983093,336.774231 390.132294,338.305817 390.045441,341.675568 
	C389.883057,347.977264 389.902527,354.288055 390.035919,360.591034 
	C390.102844,363.753418 388.946381,365.105804 385.692810,365.036011 
	C379.224030,364.897247 372.747986,364.895691 366.279297,365.036682 
	C363.002563,365.108124 361.893555,363.710388 361.961578,360.569183 
	C362.094513,354.432190 362.167969,348.283813 361.934937,342.152710 
	C361.788544,338.301056 363.083923,336.578339 367.053833,336.962708 
	C369.191010,337.169556 371.364807,336.998199 374.016785,336.997559 
z"/>
<path fill="#F5A986" opacity="1.000000" stroke="none" 
	d="
M302.013062,382.556824 
	C309.760590,377.117371 317.508331,372.136017 325.581299,367.059631 
	C328.844696,366.774323 330.098541,368.060669 330.038025,371.085205 
	C329.908203,377.574402 329.865234,384.071838 330.051514,390.558289 
	C330.155975,394.195679 328.477448,395.125366 325.207275,395.044617 
	C319.218506,394.896667 313.212646,394.783203 307.234650,395.077301 
	C302.926849,395.289246 301.585602,393.482086 301.959808,389.503387 
	C302.161591,387.357880 302.007080,385.178833 302.013062,382.556824 
z"/>
<path fill="#F4A985" opacity="1.000000" stroke="none" 
	d="
M362.070526,333.195465 
	C367.880981,324.231171 373.846283,315.642914 380.068542,306.869751 
	C390.005890,307.554016 390.007660,307.554016 390.005341,317.403412 
	C390.004242,322.033752 390.207336,326.680450 389.852600,331.283875 
	C389.753204,332.573883 388.038635,334.755615 386.999878,334.794556 
	C379.405609,335.079529 371.794312,334.955566 364.190002,334.847626 
	C363.529205,334.838257 362.879974,334.016083 362.070526,333.195465 
z"/>
<path fill="#F4A985" opacity="1.000000" stroke="none" 
	d="
M332.087494,362.532288 
	C340.771149,353.717133 349.501007,345.289734 358.541382,336.709656 
	C359.187744,345.300140 359.578979,354.042175 359.752716,362.788544 
	C359.766418,363.478271 358.278992,364.795868 357.470184,364.811066 
	C349.668243,364.957703 341.861450,364.934143 334.058960,364.794617 
	C333.406250,364.782928 332.774933,363.573181 332.087494,362.532288 
z"/>
<path fill="#F2A784" opacity="1.000000" stroke="none" 
	d="
M276.332733,394.234558 
	C283.333923,390.633575 290.671448,387.275238 298.354279,383.860229 
	C299.108002,386.661316 299.771729,389.519257 299.770111,392.376801 
	C299.769623,393.239716 297.930756,394.835388 296.921814,394.845245 
	C290.172729,394.911346 283.420380,394.639435 276.332733,394.234558 
z"/>
<path fill="#F2A784" opacity="1.000000" stroke="none" 
	d="
M381.801453,304.875702 
	C383.265381,301.003357 385.221802,297.165039 387.420349,293.095734 
	C392.075104,295.488159 389.899170,299.696075 389.450867,303.023071 
	C389.325134,303.956451 384.800690,304.297150 381.801453,304.875702 
z"/>
<path fill="#E29B7B" opacity="1.000000" stroke="none" 
	d="
M389.681091,289.012085 
	C389.693298,288.280151 389.977875,287.545868 390.512207,286.637634 
	C390.841248,287.022247 390.920502,287.580872 391.022156,288.561584 
	C390.680878,288.992371 390.317200,289.001038 389.681091,289.012085 
z"/>
<path fill="#F7AB87" opacity="1.000000" stroke="none" 
	d="
M36.271980,394.999207 
	C33.039257,395.153748 31.952993,393.791901 31.981524,391.089722 
	C32.051655,384.446991 32.070740,377.801941 31.970404,371.159943 
	C31.926168,368.231812 33.027485,366.920868 36.052975,366.969574 
	C42.694740,367.076477 49.340637,367.077728 55.982346,366.969025 
	C59.036438,366.919067 60.075417,368.290466 60.031799,371.189941 
	C59.934383,377.665894 59.907669,384.146271 60.043255,390.620850 
	C60.110039,393.809906 58.903851,395.112671 55.670193,395.041382 
	C49.361961,394.902313 43.048447,395.002869 36.271980,394.999207 
z"/>
<path fill="#F6AB87" opacity="1.000000" stroke="none" 
	d="
M83.939301,366.822968 
	C86.196114,367.941956 87.957680,369.119354 89.892532,370.566284 
	C90.044090,377.495850 89.952080,384.156769 90.033035,390.815613 
	C90.068535,393.735413 89.007324,395.081787 85.957092,395.031494 
	C79.298569,394.921722 72.635773,394.921722 65.977211,395.029694 
	C62.872498,395.080048 61.929611,393.606598 61.970665,390.745544 
	C62.063824,384.253052 62.100647,377.756104 61.957615,371.265411 
	C61.884659,367.954620 63.333252,366.896240 66.463516,366.955933 
	C72.121162,367.063782 77.783623,366.920044 83.939301,366.822968 
z"/>
<path fill="#F6AA86" opacity="1.000000" stroke="none" 
	d="
M51.669090,336.959229 
	C54.743614,339.645905 57.340290,342.351715 60.057182,345.356628 
	C60.119812,350.645172 59.940819,355.637177 60.048283,360.623016 
	C60.117298,363.825012 58.890476,365.114441 55.657665,365.043152 
	C49.338593,364.903717 43.011345,364.890625 36.693222,365.051239 
	C33.328472,365.136719 31.842672,364.009857 31.944788,360.468567 
	C32.126938,354.151642 32.129021,347.821808 31.944403,341.505035 
	C31.840111,337.936554 33.379742,336.838531 36.718288,336.951477 
	C41.537392,337.114502 46.366440,336.983765 51.669090,336.959229 
z"/>
<path fill="#F4A985" opacity="1.000000" stroke="none" 
	d="
M92.881355,373.243195 
	C101.950935,377.749603 110.755463,382.586731 119.793503,387.672668 
	C119.956299,395.000336 119.956299,395.003998 112.949242,395.009460 
	C107.482628,395.013733 102.011559,394.873138 96.551010,395.054413 
	C93.066422,395.170105 91.771599,393.756226 91.963615,390.363495 
	C92.280037,384.772552 92.408569,379.170990 92.881355,373.243195 
z"/>
<path fill="#F2A784" opacity="1.000000" stroke="none" 
	d="
M33.849655,313.051147 
	C39.187763,319.561798 44.143097,326.220703 49.232700,333.179810 
	C44.197918,333.914612 39.032372,334.417786 33.854633,334.682617 
	C33.309692,334.710480 32.192902,333.337830 32.188187,332.609467 
	C32.148464,326.478516 32.289211,320.345764 32.449234,314.215515 
	C32.458298,313.868195 33.112789,313.537689 33.849655,313.051147 
z"/>
<path fill="#F2A784" opacity="1.000000" stroke="none" 
	d="
M64.047485,349.949280 
	C69.835907,354.353607 75.225975,358.910950 80.803986,363.743164 
	C75.482346,364.312225 69.974518,364.670807 64.461006,364.821960 
	C63.740864,364.841705 62.327221,363.752350 62.359772,363.249512 
	C62.644093,358.857697 63.184635,354.482422 64.047485,349.949280 
z"/>
<path fill="#F1A683" opacity="1.000000" stroke="none" 
	d="
M122.024445,389.327454 
	C125.878670,390.378784 129.724457,391.866150 133.828873,393.586975 
	C130.872482,394.183533 127.616142,394.967438 124.467148,394.658203 
	C123.499222,394.563110 122.824821,391.478912 122.024445,389.327454 
z"/>
<path fill="#F7AB87" opacity="1.000000" stroke="none" 
	d="
M32.341045,33.426140 
	C32.120449,26.034065 32.127163,19.059862 31.978786,12.088960 
	C31.915066,9.095256 33.172127,7.922342 36.131268,7.968603 
	C42.607399,8.069843 49.088112,8.089650 55.563164,7.957289 
	C58.705345,7.893057 60.113636,8.996055 60.037174,12.277431 
	C59.894051,18.419638 60.178898,24.576992 59.862644,30.706215 
	C59.787128,32.169693 58.095303,34.732639 57.063969,34.775085 
	C49.441120,35.088764 41.797009,34.913303 34.160614,34.813274 
	C33.604786,34.805992 33.057030,34.182396 32.341045,33.426140 
z"/>
<path fill="#F7AB87" opacity="1.000000" stroke="none" 
	d="
M66.271576,35.007683 
	C63.036213,35.159256 61.956676,33.787785 61.987110,31.090902 
	C62.058300,24.781775 62.078178,18.470150 61.976254,12.161840 
	C61.928986,9.236467 63.029366,7.920013 66.055573,7.968395 
	C72.695923,8.074558 79.340340,8.075733 85.980644,7.968173 
	C89.036873,7.918667 90.071251,9.299630 90.024643,12.194559 
	C89.925766,18.336857 89.898605,24.484037 90.036049,30.624876 
	C90.107361,33.810913 88.899773,35.119854 85.665756,35.049232 
	C79.358826,34.911514 73.046722,35.011284 66.271576,35.007683 
z"/>
<path fill="#F7AB87" opacity="1.000000" stroke="none" 
	d="
M60.157829,61.923279 
	C59.601032,63.177162 58.989609,63.936165 57.647537,64.820724 
	C48.612865,64.960655 40.308846,64.975021 32.002281,64.994202 
	C31.999739,64.999023 32.007088,64.992043 32.007088,64.992043 
	C32.004993,57.664078 32.125278,50.333153 31.947924,43.009434 
	C31.862356,39.476021 32.882904,37.793503 36.729420,37.931561 
	C42.883644,38.152451 49.057156,38.148514 55.211704,37.932114 
	C58.991100,37.799229 60.159050,39.343872 60.058155,42.945606 
	C59.885704,49.101284 60.069206,55.266937 60.157829,61.923279 
z"/>
<path fill="#F5A986" opacity="1.000000" stroke="none" 
	d="
M119.986412,19.410149 
	C110.955803,25.101227 101.925995,30.339365 92.530670,35.649521 
	C92.111145,27.924667 92.136978,20.126028 91.964737,12.331766 
	C91.893478,9.106952 93.185829,7.880857 96.375656,7.956398 
	C102.179604,8.093844 108.004150,8.247286 113.791763,7.909101 
	C118.457512,7.636471 120.712196,9.034364 120.038094,13.984265 
	C119.816154,15.613998 119.992821,17.298016 119.986412,19.410149 
z"/>
<path fill="#F4A985" opacity="1.000000" stroke="none" 
	d="
M86.999268,38.963837 
	C79.580505,45.782154 72.010284,52.210487 64.135574,58.785591 
	C63.219063,55.644695 62.106792,52.360725 62.082508,49.068729 
	C61.982941,35.573177 60.467327,36.970821 73.944519,37.083435 
	C78.249466,37.119411 82.546921,38.051682 86.999268,38.963837 
z"/>
<path fill="#F5A986" opacity="1.000000" stroke="none" 
	d="
M132.982544,14.606127 
	C130.120087,15.880110 127.257645,17.154095 124.051422,18.480515 
	C123.144051,15.326634 122.580460,12.120321 122.034714,8.455830 
	C129.387787,7.998062 136.723007,7.998474 144.528351,8.293886 
	C144.984253,9.178773 144.970047,9.768659 144.955841,10.358541 
	C144.118500,10.704082 143.281158,11.049625 141.683960,11.312141 
	C138.276917,12.354787 135.629730,13.480457 132.982544,14.606127 
z"/>
<path fill="#E29B7B" opacity="1.000000" stroke="none" 
	d="
M30.345781,67.997437 
	C30.009514,67.552589 30.003416,67.108719 29.997147,66.331833 
	C30.495167,65.738945 30.993359,65.479065 31.749319,65.105621 
	C32.007088,64.992043 31.999739,64.999023 32.121101,65.249069 
	C32.495979,66.000824 32.749493,66.502518 32.809830,67.142807 
	C32.372364,67.487946 32.165955,67.727173 31.997421,67.999084 
	C31.556931,67.998863 31.116440,67.998634 30.345781,67.997437 
z"/>
<path fill="#F7AB87" opacity="1.000000" stroke="none" 
	d="
M2.269313,6.724886 
	C2.241865,6.603970 2.416178,6.407067 2.787705,6.126198 
	C2.817364,6.246338 2.646082,6.448561 2.269313,6.724886 
z"/>
<path fill="#E29B7B" opacity="1.000000" stroke="none" 
	d="
M23.330044,114.092346 
	C23.051105,115.392975 22.452675,116.823212 21.590439,118.467010 
	C21.887938,117.194366 22.449244,115.708160 23.330044,114.092346 
z"/>
<path fill="#EDA380" opacity="1.000000" stroke="none" 
	d="
M395.980652,126.742233 
	C395.431824,127.396477 394.821960,127.792801 393.869659,128.321243 
	C393.527222,128.453369 393.485657,128.450348 393.624207,128.026169 
	C393.837280,127.040871 393.911835,126.479759 393.986389,125.918655 
	C394.630798,126.107208 395.275208,126.295761 395.980652,126.742233 
z"/>
<path fill="#E29B7B" opacity="1.000000" stroke="none" 
	d="
M393.752472,125.918007 
	C393.911835,126.479759 393.837280,127.040871 393.621979,128.005005 
	C393.150940,127.762680 392.820679,127.117340 392.537018,126.196068 
	C392.895172,125.886223 393.206818,125.885292 393.752472,125.918007 
z"/>
<path fill="#E29B7B" opacity="1.000000" stroke="none" 
	d="
M392.796326,281.889099 
	C392.734192,281.274567 392.955414,280.498993 393.411926,279.518921 
	C393.458038,280.118927 393.268860,280.923492 392.796326,281.889099 
z"/>
<path fill="#E29B7B" opacity="1.000000" stroke="none" 
	d="
M408.046356,216.783813 
	C407.680420,208.975800 407.586731,200.931854 407.611145,192.432892 
	C408.153229,193.811417 408.949249,195.648071 408.933929,197.477936 
	C408.880798,203.835861 408.546173,210.191422 408.046356,216.783813 
z"/>
<path fill="#E29B7B" opacity="1.000000" stroke="none" 
	d="
M403.416199,159.639420 
	C402.649567,157.838791 402.069153,155.754440 401.545410,153.306015 
	C402.274811,153.818787 402.947540,154.695663 403.825073,155.773849 
	C403.887390,157.102005 403.744904,158.228867 403.416199,159.639420 
z"/>
<path fill="#E29B7B" opacity="1.000000" stroke="none" 
	d="
M407.338135,183.713837 
	C406.910767,182.844055 406.669525,181.740891 406.530212,180.306686 
	C406.929474,181.143906 407.226868,182.312180 407.338135,183.713837 
z"/>
<path fill="#E29B7B" opacity="1.000000" stroke="none" 
	d="
M404.933716,240.899338 
	C404.761475,240.212051 404.813324,239.398148 405.041504,238.325897 
	C405.197815,238.969284 405.177795,239.871002 404.933716,240.899338 
z"/>
<path fill="#E29B7B" opacity="1.000000" stroke="none" 
	d="
M405.364655,169.732178 
	C404.960052,169.147964 404.723785,168.361877 404.580994,167.274628 
	C404.960663,167.825745 405.246826,168.678024 405.364655,169.732178 
z"/>
<path fill="#E29B7B" opacity="1.000000" stroke="none" 
	d="
M406.334534,175.749115 
	C405.959137,175.152710 405.756897,174.360687 405.655090,173.271210 
	C406.006226,173.833664 406.256958,174.693573 406.334534,175.749115 
z"/>
<path fill="#E29B7B" opacity="1.000000" stroke="none" 
	d="
M406.994568,226.888153 
	C406.789948,226.208771 406.803101,225.393478 406.985962,224.314056 
	C407.174591,224.950699 407.193451,225.851456 406.994568,226.888153 
z"/>
<path fill="#E29B7B" opacity="1.000000" stroke="none" 
	d="
M405.993958,234.888885 
	C405.788544,234.207840 405.800995,233.391098 405.985809,232.312347 
	C406.176025,232.951279 406.193909,233.852234 405.993958,234.888885 
z"/>
<path fill="#E29B7B" opacity="1.000000" stroke="none" 
	d="
M404.295197,163.794464 
	C403.941467,163.464325 403.737823,162.977356 403.614410,162.230835 
	C403.944855,162.526733 404.195038,163.082199 404.295197,163.794464 
z"/>
<path fill="#E29B7B" opacity="1.000000" stroke="none" 
	d="
M395.711823,133.353088 
	C395.240143,132.977676 394.833649,132.273224 394.451599,131.259186 
	C394.909668,131.641098 395.343353,132.332565 395.711823,133.353088 
z"/>
<path fill="#E29B7B" opacity="1.000000" stroke="none" 
	d="
M400.368103,147.774139 
	C399.972565,147.451248 399.728394,146.965729 399.557739,146.209595 
	C399.927368,146.496490 400.223419,147.054001 400.368103,147.774139 
z"/>
<path fill="#E29B7B" opacity="1.000000" stroke="none" 
	d="
M402.759338,250.941528 
	C402.596405,250.493591 402.646729,249.961365 402.884094,249.226242 
	C403.038269,249.634644 403.005432,250.245941 402.759338,250.941528 
z"/>
<path fill="#E29B7B" opacity="1.000000" stroke="none" 
	d="
M401.822449,254.941101 
	C401.672516,254.502289 401.727905,253.977081 401.965637,253.249191 
	C402.107910,253.649231 402.067810,254.251968 401.822449,254.941101 
z"/>
<path fill="#E29B7B" opacity="1.000000" stroke="none" 
	d="
M399.781219,261.947021 
	C399.655792,261.503693 399.738586,260.980133 400.011475,260.259277 
	C400.130859,260.663574 400.060120,261.265198 399.781219,261.947021 
z"/>
<path fill="#C98667" opacity="1.000000" stroke="none" 
	d="
M14.944811,133.202606 
	C14.452652,135.660706 13.684844,138.364258 12.667896,141.304199 
	C13.168892,138.843079 13.919027,136.145569 14.944811,133.202606 
z"/>
<path fill="#C98667" opacity="1.000000" stroke="none" 
	d="
M8.097774,155.835922 
	C7.957525,158.018799 7.593795,160.207367 6.998447,162.677307 
	C6.833751,161.212357 6.900672,159.466034 6.976424,157.364883 
	C6.985256,157.010056 7.008646,156.534164 7.007843,156.296539 
	C7.298493,155.995926 7.587576,155.923492 8.097774,155.835922 
z"/>
<path fill="#C98667" opacity="1.000000" stroke="none" 
	d="
M10.001575,149.010742 
	C9.929908,150.393494 9.613203,151.933151 9.063078,153.721786 
	C9.138618,152.369720 9.447578,150.768692 10.001575,149.010742 
z"/>
<path fill="#C98667" opacity="1.000000" stroke="none" 
	d="
M17.913311,126.146820 
	C17.621662,127.219551 17.071474,128.415649 16.318802,129.890076 
	C16.261843,129.332184 16.407368,128.496002 16.689449,127.361130 
	C17.102262,126.798363 17.378519,126.534271 17.913311,126.146820 
z"/>
<path fill="#C98667" opacity="1.000000" stroke="none" 
	d="
M11.169789,144.949234 
	C11.326587,145.427521 11.269239,145.991226 10.997322,146.758423 
	C10.840382,146.319489 10.898014,145.677063 11.169789,144.949234 
z"/>
<path fill="#C98667" opacity="1.000000" stroke="none" 
	d="
M6.454642,244.730499 
	C6.860425,245.065460 7.101027,245.830444 7.253061,246.887802 
	C6.902325,247.207306 6.649169,247.171219 6.218192,247.024567 
	C6.117393,246.371628 6.203428,245.766083 6.454642,244.730499 
z"/>
<path fill="#C98667" opacity="1.000000" stroke="none" 
	d="
M9.374590,256.730957 
	C9.788515,257.147522 10.093340,257.858307 10.316458,258.855377 
	C9.911662,258.436157 9.588575,257.730682 9.374590,256.730957 
z"/>
<path fill="#E59E7D" opacity="1.000000" stroke="none" 
	d="
M149.027557,9.048141 
	C148.586502,9.525503 148.140182,9.708477 147.335144,9.563589 
	C146.987396,8.828732 146.998367,8.421735 147.009338,8.014738 
	C147.487305,7.705383 147.965271,7.396027 148.730377,7.036296 
	C149.019104,7.575199 149.020691,8.164475 149.027557,9.048141 
z"/>
<path fill="#EDA380" opacity="1.000000" stroke="none" 
	d="
M146.673584,8.009829 
	C146.998367,8.421735 146.987396,8.828732 146.969467,9.541194 
	C146.470932,10.061481 145.979370,10.276300 145.221832,10.424832 
	C144.970047,9.768659 144.984253,9.178773 144.996643,8.293674 
	C145.442490,8.000613 145.890152,8.002766 146.673584,8.009829 
z"/>
<path fill="#E29B7B" opacity="1.000000" stroke="none" 
	d="
M249.959290,6.052336 
	C249.525803,6.211544 248.998413,6.175471 248.264740,5.959032 
	C248.660767,5.804796 249.263062,5.830925 249.959290,6.052336 
z"/>
<path fill="#C98667" opacity="1.000000" stroke="none" 
	d="
M6.158290,164.993820 
	C6.347489,165.729111 6.297228,166.590576 6.036006,167.710419 
	C5.856307,167.019196 5.887568,166.069611 6.158290,164.993820 
z"/>
<path fill="#C98667" opacity="1.000000" stroke="none" 
	d="
M3.908041,179.149506 
	C4.147258,179.837265 4.151460,180.701706 3.966106,181.763214 
	C3.742042,181.082260 3.707534,180.204224 3.908041,179.149506 
z"/>
<path fill="#C98667" opacity="1.000000" stroke="none" 
	d="
M4.923081,171.960388 
	C5.131268,172.409485 5.144413,172.965347 4.968979,173.741730 
	C4.762947,173.330551 4.745493,172.698837 4.923081,171.960388 
z"/>
<path fill="#C98667" opacity="1.000000" stroke="none" 
	d="
M3.667359,226.270142 
	C4.055772,226.883636 4.261021,227.728012 4.344609,228.812744 
	C3.976697,228.202393 3.730447,227.351730 3.667359,226.270142 
z"/>
<path fill="#C98667" opacity="1.000000" stroke="none" 
	d="
M4.689777,234.223969 
	C5.021346,234.575714 5.194252,235.112808 5.257365,235.842285 
	C4.942087,235.492889 4.736600,234.951111 4.689777,234.223969 
z"/>
<path fill="#C98667" opacity="1.000000" stroke="none" 
	d="
M5.704198,240.226959 
	C6.052017,240.575363 6.242855,241.115112 6.327267,241.852814 
	C5.996299,241.506607 5.771758,240.962448 5.704198,240.226959 
z"/>
<path fill="#F2A784" opacity="1.000000" stroke="none" 
	d="
M31.996815,68.467834 
	C32.165955,67.727173 32.372364,67.487946 33.278023,67.142426 
	C39.158314,67.004379 44.384357,66.854553 49.591686,67.100700 
	C51.098419,67.171921 52.551434,68.379631 54.029072,69.066338 
	C47.621937,77.619507 41.214798,86.172684 34.541523,94.918228 
	C33.776081,95.076942 33.276775,95.043274 32.402977,94.994484 
	C32.017731,86.298431 32.006969,77.617508 31.996815,68.467834 
z"/>
<path fill="#F5A986" opacity="1.000000" stroke="none" 
	d="
M206.801407,149.306091 
	C230.592148,151.761719 245.172455,167.836563 245.454056,191.391724 
	C245.551559,199.548370 245.092834,207.783936 246.047897,215.846054 
	C251.286652,260.069397 301.700897,281.367340 337.333191,254.594650 
	C338.562073,253.671310 339.811127,252.774826 341.050781,251.865814 
	C341.378326,252.164185 341.705902,252.462555 342.033478,252.760910 
	C341.078522,254.399811 340.231812,256.113953 339.152679,257.666504 
	C317.422241,288.929901 287.663635,305.129333 249.432297,304.953033 
	C229.187073,304.859711 212.051056,287.134644 211.433319,265.914490 
	C211.137634,255.757706 211.365768,245.585938 211.327972,235.421082 
	C211.321350,233.638443 211.172379,231.856354 211.082840,229.938843 
	C207.033478,229.938843 203.451523,229.938843 199.229416,229.938843 
	C199.229416,231.986343 199.231110,233.773071 199.229126,235.559814 
	C199.218002,245.558136 199.412842,255.561859 199.152206,265.553680 
	C198.565735,288.037292 180.952423,305.244934 158.449280,304.948212 
	C122.849792,304.478821 94.707390,289.314819 73.588486,260.828339 
	C71.654663,258.219879 69.821175,255.537018 68.644875,252.004944 
	C70.890701,253.377518 73.186440,254.675262 75.374519,256.134430 
	C94.232117,268.709900 114.203354,270.159485 134.087494,259.879395 
	C153.998718,249.585327 164.338135,232.398270 164.920380,209.740067 
	C165.083023,203.410812 165.017731,197.075974 165.092316,190.744125 
	C165.378342,166.459946 182.072662,149.694885 206.801407,149.306091 
z"/>
<path fill="#F5A986" opacity="1.000000" stroke="none" 
	d="
M54.406868,147.002899 
	C54.408703,142.171860 54.363525,137.839401 54.423111,133.508392 
	C54.511269,127.100952 56.736080,124.663803 63.143753,124.589401 
	C75.471138,124.446251 87.801208,124.533020 100.130173,124.528625 
	C108.293968,124.525719 116.457985,124.492996 124.621498,124.541733 
	C132.633240,124.589561 134.779282,126.695656 134.788971,134.598618 
	C134.817978,158.256943 135.375092,181.934616 134.581787,205.566330 
	C134.113998,219.501862 143.387283,229.528717 159.449539,223.034943 
	C158.964264,224.982193 158.782990,226.568283 158.185608,227.978058 
	C149.091568,249.439621 133.275543,262.015808 109.644669,262.675629 
	C87.266075,263.300476 69.842316,253.325150 60.537296,233.059357 
	C56.190258,223.591766 55.198368,212.128983 54.657318,201.470428 
	C53.746262,183.523010 54.407070,165.495773 54.406868,147.002899 
z"/>
<path fill="#F6AA86" opacity="1.000000" stroke="none" 
	d="
M310.988708,262.150787 
	C277.522278,267.234955 254.677231,242.502472 251.549408,223.342224 
	C252.032684,223.371521 252.525177,223.284943 252.920670,223.442261 
	C265.722107,228.534180 275.748810,221.812729 275.808838,207.949921 
	C275.887451,189.802155 275.829956,171.653778 275.832489,153.505676 
	C275.833466,146.679337 275.770386,139.852066 275.862457,133.026917 
	C275.941833,127.144264 278.145905,124.680130 284.005829,124.646629 
	C305.316589,124.524757 326.628876,124.525261 347.939636,124.648972 
	C353.764679,124.682793 356.128326,127.214897 356.130280,133.018814 
	C356.138489,157.493637 356.433716,181.977234 355.885620,206.441086 
	C355.234436,235.508331 341.986633,252.274490 318.195801,260.446625 
	C316.006012,261.198792 313.679169,261.552002 310.988708,262.150787 
z"/>
<path fill="#E59E7D" opacity="1.000000" stroke="none" 
	d="
M54.321342,68.937424 
	C52.551434,68.379631 51.098419,67.171921 49.591686,67.100700 
	C44.384357,66.854553 39.158314,67.004379 33.471199,67.003838 
	C32.749493,66.502518 32.495979,66.000824 32.123642,65.244255 
	C40.308846,64.975021 48.612865,64.960655 57.374382,64.940994 
	C56.759121,66.226639 55.686367,67.517570 54.321342,68.937424 
z"/>
<path fill="#EDA380" opacity="1.000000" stroke="none" 
	d="
M133.343170,14.586953 
	C135.629730,13.480457 138.276917,12.354787 141.343674,11.266265 
	C139.076767,12.391536 136.390274,13.479656 133.343170,14.586953 
z"/>
<path fill="#E29B7B" opacity="1.000000" stroke="none" 
	d="
M274.529846,13.533243 
	C275.110931,13.491716 275.904144,13.670300 276.870361,14.114765 
	C276.276245,14.171550 275.509094,13.962452 274.529846,13.533243 
z"/>
<path fill="#E29B7B" opacity="1.000000" stroke="none" 
	d="
M286.572144,18.497931 
	C287.160950,18.488667 287.944672,18.717306 288.884003,19.225395 
	C288.282104,19.248508 287.524567,18.992170 286.572144,18.497931 
z"/>
</svg>